<svg width="112" height="112" viewBox="0 0 112 112" fill="none" xmlns="http://www.w3.org/2000/svg">
<path fill-rule="evenodd" clip-rule="evenodd" d="M75.1219 95.6098L95.6098 95.6098V75.122H75.1219V95.6098ZM112 112V58.7317L58.7317 58.7317V112L112 112Z" fill="#2E2E2E"/>
<path fill-rule="evenodd" clip-rule="evenodd" d="M75.1219 95.6098L95.6098 95.6098V75.122H75.1219V95.6098ZM112 112V58.7317L58.7317 58.7317V112L112 112Z" fill="#23F7DD" fill-opacity="0.06"/>
<path fill-rule="evenodd" clip-rule="evenodd" d="M36.878 85.3659C36.878 79.7083 32.2917 75.122 26.6341 75.122C20.9766 75.122 16.3902 79.7083 16.3902 85.3659C16.3902 91.0234 20.9766 95.6098 26.6341 95.6098C32.2917 95.6098 36.878 91.0234 36.878 85.3659ZM26.6341 112C41.3438 112 53.2683 100.075 53.2683 85.3659C53.2683 70.6562 41.3438 58.7317 26.6341 58.7317C11.9245 58.7317 -1.28596e-06 70.6562 0 85.3659C1.28596e-06 100.075 11.9245 112 26.6341 112Z" fill="#2E2E2E"/>
<path fill-rule="evenodd" clip-rule="evenodd" d="M36.878 85.3659C36.878 79.7083 32.2917 75.122 26.6341 75.122C20.9766 75.122 16.3902 79.7083 16.3902 85.3659C16.3902 91.0234 20.9766 95.6098 26.6341 95.6098C32.2917 95.6098 36.878 91.0234 36.878 85.3659ZM26.6341 112C41.3438 112 53.2683 100.075 53.2683 85.3659C53.2683 70.6562 41.3438 58.7317 26.6341 58.7317C11.9245 58.7317 -1.28596e-06 70.6562 0 85.3659C1.28596e-06 100.075 11.9245 112 26.6341 112Z" fill="#23F7DD" fill-opacity="0.06"/>
<path fill-rule="evenodd" clip-rule="evenodd" d="M16.3902 36.878H26.6341C32.2917 36.878 36.878 32.2917 36.878 26.6341C36.878 20.9766 32.2917 16.3902 26.6341 16.3902H16.3902V36.878ZM53.2683 26.6341C53.2683 11.9245 41.3438 1.80719e-06 26.6341 1.16422e-06L2.32843e-06 0L0 53.2683H26.6341C41.3438 53.2683 53.2683 41.3438 53.2683 26.6341Z" fill="#2E2E2E"/>
<path fill-rule="evenodd" clip-rule="evenodd" d="M16.3902 36.878H26.6341C32.2917 36.878 36.878 32.2917 36.878 26.6341C36.878 20.9766 32.2917 16.3902 26.6341 16.3902H16.3902V36.878ZM53.2683 26.6341C53.2683 11.9245 41.3438 1.80719e-06 26.6341 1.16422e-06L2.32843e-06 0L0 53.2683H26.6341C41.3438 53.2683 53.2683 41.3438 53.2683 26.6341Z" fill="#23F7DD" fill-opacity="0.06"/>
<path fill-rule="evenodd" clip-rule="evenodd" d="M95.6098 16.3902L85.3659 16.3902C79.7083 16.3902 75.1219 20.9766 75.1219 26.6342C75.122 32.2917 79.7083 36.8781 85.3659 36.8781C91.0234 36.8781 95.6098 32.2917 95.6098 26.6341V16.3902ZM85.3659 53.2683C100.075 53.2683 112 41.3438 112 26.6341V2.32843e-06L85.3659 4.65686e-06C70.6562 5.94282e-06 58.7317 11.9245 58.7317 26.6342C58.7317 41.3438 70.6562 53.2683 85.3659 53.2683Z" fill="#2E2E2E"/>
<path fill-rule="evenodd" clip-rule="evenodd" d="M95.6098 16.3902L85.3659 16.3902C79.7083 16.3902 75.1219 20.9766 75.1219 26.6342C75.122 32.2917 79.7083 36.8781 85.3659 36.8781C91.0234 36.8781 95.6098 32.2917 95.6098 26.6341V16.3902ZM85.3659 53.2683C100.075 53.2683 112 41.3438 112 26.6341V2.32843e-06L85.3659 4.65686e-06C70.6562 5.94282e-06 58.7317 11.9245 58.7317 26.6342C58.7317 41.3438 70.6562 53.2683 85.3659 53.2683Z" fill="#23F7DD" fill-opacity="0.06"/>
</svg>
