<?xml version="1.0" encoding="utf-8"?>
<!-- Generator: Adobe Illustrator 23.0.4, SVG Export Plug-In . SVG Version: 6.00 Build 0)  -->
<svg version="1.1" id="Layer_1" xmlns="http://www.w3.org/2000/svg" xmlns:xlink="http://www.w3.org/1999/xlink" x="0px" y="0px"
	 viewBox="0 0 554.4 141.8" style="enable-background:new 0 0 554.4 141.8;" xml:space="preserve">
<style type="text/css">
	.st0{fill-rule:evenodd;clip-rule:evenodd;}
</style>
<g>
	<path class="st0" d="M84,83.3c-0.4-9.2-3.5-16.4-9.4-21.4S61,54.4,51.4,54.4c-8.7,0-16.3,2.5-22.6,7.6S18.5,74.1,17.2,83.1H84V83.3
		z M93.4,123.1c-4.7,5.6-10.8,9.9-18.4,12.8c-7.4,2.9-15.3,4.4-23.2,4.4c-15.1,0-27.3-4.6-36.7-13.8C5.7,117.3,1,105.1,1,89.9
		C1,75.3,5.7,63.4,15.1,54S36.4,39.9,51,39.9c15.6,0,28,4.8,37.2,14.5s12.9,23.7,11,42.1h-82c0.9,8.7,4.6,15.7,11.1,21
		s14.5,7.9,23.8,7.9c5.7,0,11.5-1.1,17.3-3.2c5.8-2.1,10.2-5.1,13.4-8.9L93.4,123.1C93.5,123.1,93.4,123.1,93.4,123.1z M115.8,138.5
		V1.9h16v136.7L115.8,138.5L115.8,138.5z M162.9,41.9l1.2,14.4c5.7-10.7,15.6-16,29.7-16c8.5-0.3,15.9,2.1,22.5,7.2L209,61.2
		c-5.1-3.5-10.7-5.3-16.8-5.3c-7.9,0.1-14.6,2.8-20.1,8.1s-8.2,12.2-8.2,20.8v53.7h-16V42.1h14.8L162.9,41.9z M344.7,41.9h14.6
		l0.8,15.4c8.2-11.2,19.2-16.8,33-16.8c12.5,0,22.7,4,30.6,12s11.8,18.9,11.8,32.7v53.3h-16V85.4c0-9.4-2.6-16.7-7.8-22.1
		c-5.2-5.3-12.4-8-21.5-8c-8.7,0.1-15.8,3.2-21.4,9.2s-8.3,13.4-8.3,22.3v51.7h-15.8L344.7,41.9L344.7,41.9z M552.5,1.7v136.7h-15
		l-0.8-17.6c-3.8,6.4-8.9,11.2-15.3,14.5c-6.4,3.3-13.4,5-20.8,5c-14.2,0-25.9-4.5-35-13.4c-9.2-8.9-13.8-21.1-13.8-36.6
		c0-15.8,4.6-28,13.7-36.8s20.8-13.2,34.9-13.2c7.3,0,14.3,1.7,21.1,5s11.8,8.1,15,14.3V1.9h15.8L552.5,1.7z M501.8,55.2
		c-9.8,0-17.9,3.1-24.3,9.3s-9.7,14.7-9.7,25.7c0,10.8,3.2,19.3,9.7,25.6c6.4,6.2,14.5,9.4,24.3,9.4s17.9-3.3,24.4-9.8
		s9.8-15,9.8-25.4c0-10.2-3.3-18.5-9.9-25c-6.6-6.5-14.7-9.8-24.5-9.8L501.8,55.2L501.8,55.2z M307.5,58.1c-0.3-0.4-0.5-0.8-0.5-1.3
		c0-1,0.8-1.9,1.9-1.9c0.5,0,1,0.2,1.3,0.5c0.7,0.7,0.8,1.9,0.1,2.7c-0.4,0.4-0.9,0.6-1.4,0.6C308.3,58.7,307.8,58.5,307.5,58.1
		 M302.1,63.5c-0.3-0.4-0.5-0.8-0.5-1.3s0.2-1,0.5-1.3c0.7-0.7,1.9-0.7,2.7,0c0.3,0.4,0.5,0.8,0.5,1.3s-0.2,1-0.5,1.3
		c-0.4,0.3-0.8,0.5-1.3,0.5C303,64,302.5,63.8,302.1,63.5 M296.8,68.8c-0.8-0.7-0.8-1.9-0.1-2.7c0.7-0.8,1.9-0.8,2.7-0.1
		c0,0,0,0,0.1,0.1c0.7,0.8,0.7,2-0.1,2.7C298.7,69.5,297.5,69.5,296.8,68.8 M291.5,74.1c-0.7-0.7-0.7-1.9,0-2.7
		c0.7-0.8,1.9-0.8,2.7-0.1s0.8,1.9,0.1,2.7c0,0,0,0-0.1,0.1c-0.4,0.4-0.8,0.6-1.3,0.5C292.3,74.7,291.8,74.5,291.5,74.1 M286.1,79.5
		c-0.7-0.7-0.8-1.9-0.1-2.6c0,0,0,0,0.1-0.1c0.7-0.7,1.9-0.8,2.6-0.1c0,0,0,0,0.1,0.1c0.4,0.3,0.6,0.8,0.5,1.3c0,0.5-0.2,1-0.5,1.3
		c-0.4,0.4-0.8,0.6-1.3,0.5C287,80,286.5,79.8,286.1,79.5 M280.2,83.5c0-0.5,0.2-1,0.6-1.3c0.7-0.7,1.9-0.7,2.7,0
		c0.4,0.4,0.6,0.8,0.6,1.3s-0.2,1-0.5,1.3c-0.7,0.7-2,0.7-2.7,0C280.4,84.5,280.2,84,280.2,83.5z M275.5,90.2
		c-0.4-0.4-0.6-0.8-0.5-1.3c0-1,0.8-1.9,1.9-1.9s1.9,0.8,1.9,1.9c0,0.5-0.2,1-0.5,1.3C277.4,90.9,276.2,90.9,275.5,90.2 M270.1,95.5
		c-0.7-0.7-0.7-1.9,0-2.7c0.7-0.7,1.9-0.7,2.7,0c0.4,0.4,0.6,0.8,0.6,1.3s-0.2,1-0.6,1.3c-0.3,0.4-0.8,0.6-1.3,0.6
		C270.9,96.1,270.5,95.9,270.1,95.5 M264.8,100.8c-0.7-0.7-0.7-1.9,0-2.7c0.7-0.7,1.9-0.7,2.7,0c0.7,0.7,0.7,1.9,0,2.7
		C266.7,101.6,265.5,101.6,264.8,100.8C264.8,100.9,264.8,100.8,264.8,100.8 M259.4,106.2c-0.7-0.7-0.7-1.9,0-2.7
		c0.7-0.7,1.9-0.7,2.7,0c0.7,0.7,0.7,1.9,0,2.7c-0.4,0.4-0.8,0.6-1.3,0.6C260.3,106.7,259.8,106.5,259.4,106.2 M254.1,111.5
		c-0.4-0.3-0.6-0.8-0.6-1.3s0.2-1,0.6-1.3c0.7-0.7,1.9-0.7,2.7,0c0.7,0.7,0.7,1.9,0,2.7c-0.4,0.4-0.8,0.6-1.3,0.5
		C254.9,112.1,254.5,111.9,254.1,111.5 M248.8,116.9c-0.4-0.4-0.6-0.8-0.6-1.3s0.2-1,0.6-1.3c0.7-0.7,1.9-0.7,2.7,0
		c0.4,0.4,0.6,0.8,0.5,1.3c0,0.5-0.2,1-0.5,1.3C250.7,117.6,249.5,117.6,248.8,116.9 M243.4,122.2c-0.4-0.4-0.6-0.8-0.5-1.3
		c0-1,0.8-1.9,1.9-1.9c0.5,0,1,0.2,1.4,0.6c0.7,0.7,0.8,1.9,0,2.6l0,0C245.3,122.9,244.2,122.9,243.4,122.2"/>
	<path class="st0" d="M246.1,58.1c0.3-0.4,0.5-0.8,0.5-1.3c0-1-0.8-1.9-1.9-1.9c-0.5,0-1,0.2-1.3,0.5c-0.7,0.7-0.8,1.9-0.1,2.7
		c0.4,0.4,0.9,0.6,1.4,0.6C245.3,58.7,245.7,58.5,246.1,58.1 M251.4,63.5c0.3-0.4,0.5-0.8,0.5-1.3s-0.2-1-0.5-1.3
		c-0.7-0.7-1.9-0.7-2.7,0c-0.3,0.4-0.5,0.8-0.5,1.3s0.2,1,0.5,1.3c0.4,0.3,0.8,0.5,1.3,0.5C250.6,64,251.1,63.8,251.4,63.5
		 M256.8,68.8c0.8-0.7,0.8-1.9,0.1-2.7c-0.7-0.8-1.9-0.8-2.7-0.1l-0.1,0.1c-0.7,0.8-0.6,2,0.1,2.7C255,69.5,256.1,69.5,256.8,68.8
		 M262.1,74.1c0.7-0.7,0.7-1.9,0-2.7c-0.7-0.8-1.9-0.8-2.7-0.1c-0.8,0.7-0.8,1.9-0.1,2.7c0,0,0,0,0.1,0.1c0.4,0.4,0.8,0.6,1.3,0.5
		C261.3,74.7,261.8,74.5,262.1,74.1 M267.4,79.5c0.7-0.7,0.8-1.9,0.1-2.6c0,0,0,0-0.1-0.1c-0.7-0.7-1.9-0.8-2.6-0.1c0,0,0,0-0.1,0.1
		c-0.4,0.3-0.6,0.8-0.5,1.3c0,0.5,0.2,1,0.5,1.3c0.4,0.4,0.8,0.6,1.3,0.5C266.6,80,267.1,79.8,267.4,79.5 M273.4,83.5
		c0-0.5-0.2-1-0.6-1.3c-0.7-0.7-1.9-0.7-2.7,0c-0.4,0.4-0.6,0.8-0.6,1.3s0.2,1,0.5,1.3c0.7,0.7,2,0.7,2.7,0
		C273.2,84.5,273.4,84,273.4,83.5z M278.1,90.2c0.4-0.4,0.6-0.8,0.5-1.3c0-1-0.8-1.9-1.9-1.9c-1,0-1.9,0.8-1.9,1.9
		c0,0.5,0.2,1,0.5,1.3C276.2,90.9,277.4,90.9,278.1,90.2 M283.5,95.5c0.7-0.7,0.7-1.9,0-2.7c-0.7-0.7-1.9-0.7-2.7,0l0,0
		c-0.4,0.4-0.6,0.8-0.6,1.3s0.2,1,0.6,1.3c0.3,0.4,0.8,0.6,1.3,0.6C282.6,96.1,283.1,95.9,283.5,95.5 M288.8,100.8
		c0.7-0.7,0.7-1.9,0-2.7c-0.7-0.7-1.9-0.7-2.7,0c-0.7,0.7-0.7,1.9,0,2.7C286.9,101.6,288,101.6,288.8,100.8
		C288.8,100.9,288.8,100.8,288.8,100.8 M294.2,106.2c0.7-0.7,0.7-1.9,0-2.7c-0.7-0.7-1.9-0.7-2.7,0c-0.7,0.7-0.7,1.9,0,2.7
		c0.4,0.4,0.8,0.6,1.3,0.6C293.3,106.7,293.8,106.6,294.2,106.2 M299.5,111.5c0.4-0.4,0.6-0.8,0.6-1.3s-0.2-1-0.6-1.3
		c-0.7-0.7-1.9-0.7-2.7,0c-0.7,0.7-0.7,1.9,0,2.7c0.4,0.4,0.8,0.6,1.3,0.5C298.7,112.1,299.1,111.9,299.5,111.5 M304.8,116.9
		c0.4-0.4,0.6-0.8,0.6-1.3s-0.2-1-0.6-1.3c-0.7-0.7-1.9-0.7-2.7,0c-0.4,0.4-0.6,0.8-0.5,1.3c0,0.5,0.2,1,0.5,1.3
		C302.9,117.6,304.1,117.6,304.8,116.9 M310.2,122.2c0.4-0.4,0.6-0.8,0.5-1.3c0-1-0.8-1.9-1.9-1.9c-0.5,0-1,0.2-1.4,0.6
		c-0.7,0.7-0.8,1.9,0,2.6l0,0C308.2,122.9,309.4,122.9,310.2,122.2 M258.8,59.6l-11.5-11.5c8.9-6.8,18.6-10.2,29.4-10.3
		c10.7,0,20.5,3.4,29.4,10.3l-11.5,11.5c-5.5-3.6-11.5-5.3-17.9-5.3C270.1,54.3,264.2,56.1,258.8,59.6z M247.5,106.7L236,118.2
		c-6.8-8.9-10.2-18.7-10.1-29.4c0-10.8,3.4-20.6,10.1-29.4l11.5,11.5c-3.6,5.3-5.4,11.5-5.4,17.9C242,95.2,243.9,101.2,247.5,106.7z
		 M294.7,118.1l11.4,11.4c-8.8,6.7-18.5,10.2-29.2,10.2c-10.9,0.1-20.7-3.3-29.6-10.2l11.4-11.4c5.5,3.7,11.5,5.6,18.1,5.5
		C283.3,123.7,289.3,121.8,294.7,118.1z M306,70.9l11.5-11.5c6.9,8.9,10.3,18.7,10.2,29.6c-0.1,10.7-3.5,20.4-10.3,29.2L306,106.8
		c3.5-5.4,5.4-11.2,5.4-17.6C311.5,82.5,309.7,76.4,306,70.9z M317.9,121.8c4.4,0,8,3.6,8,8c0,4.4-3.6,8-8,8s-8-3.6-8-8
		C309.9,125.4,313.5,121.8,317.9,121.8 M235.8,121.8c4.4,0,8,3.6,8,8c0,4.4-3.6,8-8,8s-8-3.6-8-8
		C227.8,125.4,231.4,121.8,235.8,121.8 M318,39.6c4.4,0,8,3.6,8,8s-3.6,8-8,8l0,0c-4.4,0-8-3.6-8-8S313.6,39.6,318,39.6 M235.6,39.5
		c4.4,0,8,3.6,8,8s-3.6,8-8,8l0,0c-4.4,0-8-3.6-8-8S231.2,39.5,235.6,39.5"/>
</g>
</svg>
