<svg width="374" height="44" viewBox="0 0 374 44" fill="none" xmlns="http://www.w3.org/2000/svg">
<path d="M15.464 29.1249L24.196 8.2434H30.6987V35.4689H26.4009V12.4197L16.7656 35.6143H13.6821L4.13136 12.5651V35.4799H0V8.23242H6.79192L15.464 29.1249Z" fill="white"/>
<path d="M54.157 31.0623C53.4195 32.5471 52.285 33.7958 50.8808 34.6683C49.4767 35.5407 47.8586 36.0024 46.208 36.0014C40.2839 36.0014 36.2344 31.4958 36.2344 25.3V11.5391H40.6577V24.4741C40.6577 28.9769 43.2091 31.9321 47.2586 31.9321C51.4473 31.9321 54.1461 28.8808 54.1461 24.4741V11.5391H58.5312V35.4691H54.157V31.0623Z" fill="white"/>
<path d="M90.5286 35.4677H84.8909C79.3515 35.4677 76.5572 32.8033 76.5572 27.4746V15.5082H71.3262V11.5377H76.5572V5.50098H80.9424V11.5377H90.5286V15.5082H80.9424V26.4566C80.9424 29.9441 82.0503 31.3957 85.8542 31.3957H90.5258L90.5286 35.4677Z" fill="white"/>
<path d="M115.929 35.9054H112.426L101.202 11.5391H106.114L114.3 29.9949L122.443 11.5391H126.97L115.929 35.9054Z" fill="white"/>
<path d="M151.198 24.0372H131.395C131.638 28.4934 134.817 31.9947 139.491 31.9947C144.258 31.9947 146.185 29.4264 146.572 28.6526H150.903C150.518 30.7352 147.481 36.0612 139.486 36.0612C132.118 36.0612 126.958 30.5377 126.958 23.5131C126.958 16.2965 132.113 10.9678 139.052 10.9678C146.043 10.9568 151.198 16.1895 151.198 24.0372ZM131.684 20.3549H146.332C145.222 16.7219 142.67 14.7352 139.057 14.7352C135.202 14.7352 132.601 16.8673 131.684 20.3549Z" fill="white"/>
<path d="M159.832 35.4686H155.447V11.5386H159.832V15.9454C160.506 14.2002 162.528 11.3438 168.117 11.3438H170.687V15.7505H168.021C161.904 15.7505 159.835 17.6905 159.835 21.9519L159.832 35.4686Z" fill="white"/>
<path d="M180.335 24.9696C175.759 24.4208 172.531 22.2421 172.531 17.8353C172.531 13.6206 176.482 10.8574 182.311 10.8574C190.358 10.8574 192.953 15.0255 193.728 17.4429H189.056C188.527 16.8118 186.742 14.6331 182.311 14.6331C178.698 14.6331 176.853 15.9392 176.853 17.6844C176.853 19.3801 178.059 20.4448 180.9 20.785C182.78 21.0265 183.934 21.1226 186.008 21.3668C191.643 22.0912 194.053 24.5141 194.053 28.9236C194.053 32.9435 190.391 36.1402 183.645 36.1402C175.265 36.1402 172.323 30.9569 171.794 28.7782H176.468C176.708 29.552 178.635 32.2657 183.645 32.2657C187.692 32.2657 189.667 30.8115 189.667 28.9236C189.667 27.0358 188.655 25.9053 185.43 25.5321L180.335 24.9696Z" fill="white"/>
<path d="M93.8057 0H98.3818V6.92848H93.8057V0ZM93.9012 11.5246H98.2836V35.4574H93.9012V11.5246Z" fill="white"/>
<path d="M64.0898 4.17969H68.475V35.4608H64.0898V4.17969Z" fill="white"/>
<path d="M211.665 14.59L222.308 8.90999L220.52 5.48828L210.77 9.41488C210.52 9.5165 210.24 9.5165 209.99 9.41488L200.24 5.48828L198.447 8.92097L209.089 14.601L198.447 20.2809L200.24 23.7136L209.99 19.7568C210.24 19.6552 210.52 19.6552 210.77 19.7568L220.52 23.6944L222.313 20.2617L211.665 14.59Z" fill="#23F7DD"/>
<path d="M232.023 35.7131H249.338V33.2622H234.672V22.589H246.333V20.1381H234.672V10.4927H248.903V8.04184H232.023V35.7131Z" fill="white"/>
<path d="M269.086 35.7131L261.812 25.198L268.414 15.7898H265.607L260.468 23.2215L255.29 15.7898H252.483L259.085 25.198L251.811 35.7131H254.46L260.468 27.1745L266.437 35.7131H269.086Z" fill="white"/>
<path d="M272.632 43.7772H275.122V32.1158C276.348 34.4481 279.115 36.0293 282.04 36.0293C288.365 36.0293 291.725 31.4438 291.725 25.7514C291.725 20.059 288.365 15.4735 282.04 15.4735C279.115 15.4735 276.348 17.0547 275.122 19.387V15.7898H272.632V43.7772ZM281.961 33.7365C277.652 33.7365 274.846 30.5741 274.846 25.7514C274.846 20.9287 277.652 17.7663 281.961 17.7663C286.27 17.7663 289.076 20.9287 289.076 25.7514C289.076 30.5741 286.27 33.7365 281.961 33.7365Z" fill="white"/>
<path d="M296.18 35.7131H298.671V7.72559H296.18V35.7131Z" fill="white"/>
<path d="M313.178 36.0293C319.028 36.0293 323.218 31.76 323.218 25.7514C323.218 19.7428 319.028 15.4735 313.178 15.4735C307.327 15.4735 303.137 19.7428 303.137 25.7514C303.137 31.76 307.327 36.0293 313.178 36.0293ZM313.178 33.7365C308.75 33.7365 305.746 30.416 305.746 25.7514C305.746 21.0868 308.75 17.7663 313.178 17.7663C317.605 17.7663 320.609 21.0868 320.609 25.7514C320.609 30.416 317.605 33.7365 313.178 33.7365Z" fill="white"/>
<path d="M338.196 18.0825V15.7898H335.587C332.504 15.7898 330.843 17.2524 330.053 20.0195V15.7898H327.562V35.7131H330.053V27.214C330.053 22.1146 331.199 18.0825 335.587 18.0825H338.196Z" fill="white"/>
<path d="M355.747 29.4277C355.075 32.1553 352.861 33.7365 349.343 33.7365C345.35 33.7365 342.267 30.4555 342.109 25.9886H358.04C358.079 25.7119 358.119 25.0399 358.119 24.6841C358.119 19.1894 354.442 15.4735 348.987 15.4735C343.374 15.4735 339.579 19.5452 339.579 25.5933C339.579 31.5228 343.69 36.0293 349.343 36.0293C354.284 36.0293 357.723 33.4203 358.356 29.4277H355.747ZM348.987 17.7663C352.782 17.7663 355.233 20.0195 355.51 23.6958H342.267C342.899 19.98 345.35 17.7663 348.987 17.7663Z" fill="white"/>
<path d="M373.325 18.0825V15.7898H370.716C367.633 15.7898 365.973 17.2524 365.182 20.0195V15.7898H362.692V35.7131H365.182V27.214C365.182 22.1146 366.329 18.0825 370.716 18.0825H373.325Z" fill="white"/>
</svg>
