<svg
	xmlns="http://www.w3.org/2000/svg"
	xmlns:xlink="http://www.w3.org/1999/xlink" width="204" height="286" viewBox="0 0 204 286">
	<defs>
		<filter id="identity-gear-a" x="14.105" y="55.402" width="176.758" height="176.758" filterUnits="userSpaceOnUse">
			<feOffset input="SourceAlpha"/>
			<feGaussianBlur stdDeviation="5" result="b"/>
			<feFlood flood-color="#d5dce6" flood-opacity="0.702"/>
			<feComposite operator="in" in2="b"/>
			<feComposite in="SourceGraphic"/>
		</filter>
		<filter id="identity-gear-c" x="14.438" y="55.627" width="176.088" height="176.326" filterUnits="userSpaceOnUse">
			<feOffset input="SourceAlpha"/>
			<feGaussianBlur stdDeviation="5" result="d"/>
			<feFlood flood-color="#d5dce6" flood-opacity="0.702"/>
			<feComposite operator="in" in2="d"/>
			<feComposite in="SourceGraphic"/>
		</filter>
		<clipPath id="identity-gear-f">
			<rect width="204" height="286"/>
		</clipPath>
	</defs>
	<g id="e" clip-path="url(#identity-gear-f)">
		<rect width="0.5" height="286" transform="translate(102)" fill="#818ea3" opacity="0.2"/>
		<g transform="matrix(1, 0, 0, 1, 0, 0)" filter="url(#identity-gear-a)">
			<path d="M393.8,135.845a51.261,51.261,0,1,0-18.32,70.141A51.26,51.26,0,0,0,393.8,135.845Zm-75.678,38.7a12.792,12.792,0,1,1,12.792-12.792A12.792,12.792,0,0,1,318.126,174.548Zm31.447,31.447A12.792,12.792,0,1,1,362.366,193.2,12.792,12.792,0,0,1,349.573,205.995Zm-5.141-52.311a9.215,9.215,0,1,1-3.294,12.609A9.215,9.215,0,0,1,344.432,153.684Zm5.141-10.583a12.792,12.792,0,1,1,12.792-12.792A12.792,12.792,0,0,1,349.573,143.1Zm31.448,31.448a12.792,12.792,0,1,1,12.792-12.792A12.792,12.792,0,0,1,381.021,174.548Z" transform="translate(-259.08 276.59) rotate(-45)" fill="#fff" stroke="#818ea3" stroke-miterlimit="10" stroke-width="1"/>
		</g>
		<g transform="matrix(1, 0, 0, 1, 0, 0)" filter="url(#identity-gear-c)">
			<path d="M72.135,145.309l-.051,0h-.051l-2.259-.063a17.4,17.4,0,0,1-1.669-6.95c-1.923-.121-3.832-.323-5.673-.6a17.258,17.258,0,0,1-3.146,6.383l-2.217-.437-.05-.01-.051-.01-2.2-.531a17.393,17.393,0,0,1-.2-7.076c-1.826-.509-3.657-1.107-5.442-1.778a17.253,17.253,0,0,1-4.375,5.533l-2.078-.888-.048-.021-.047-.02-2.038-.977a17.364,17.364,0,0,1,1.255-6.908c-1.72-.9-3.393-1.869-4.972-2.879a17.238,17.238,0,0,1-5.391,4.456l-1.848-1.3-.042-.03-.042-.031-1.79-1.378a17.343,17.343,0,0,1,2.63-6.443c-1.461-1.208-2.9-2.509-4.278-3.865a17.183,17.183,0,0,1-6.152,3.2l-1.536-1.656-.035-.039-.035-.038-1.465-1.72a17.317,17.317,0,0,1,3.862-5.706c-1.184-1.489-2.321-3.052-3.379-4.647a17.171,17.171,0,0,1-6.617,1.862l-1.171-1.932-.026-.044-.027-.044L8.4,106.742a17.321,17.321,0,0,1,4.917-4.794c-.877-1.753-1.671-3.533-2.362-5.288a18.636,18.636,0,0,1-4.668.6A12.744,12.744,0,0,1,4.1,97.1l-.742-2.134-.017-.049-.017-.05-.651-2.164a17.309,17.309,0,0,1,5.8-3.667c-.471-1.825-.873-3.731-1.194-5.666-.288.013-.574.019-.849.019A16.764,16.764,0,0,1,.483,82.384L.2,80.142l-.006-.05L.187,80.04,0,77.788A17.325,17.325,0,0,1,6.454,75.4c-.045-1.045-.067-1.991-.067-2.893s.022-1.855.067-2.894A17.181,17.181,0,0,1,0,67.235l.189-2.252,0-.051,0-.051.285-2.242a16.971,16.971,0,0,1,5.95-1.008c.282,0,.568.006.849.019.322-1.94.724-3.847,1.194-5.666a17.157,17.157,0,0,1-5.8-3.666l.653-2.164.015-.049.015-.05L4.1,47.922H4.11a13.1,13.1,0,0,1,2.176-.159,18.62,18.62,0,0,1,4.664.6c.695-1.763,1.49-3.542,2.362-5.287a17.194,17.194,0,0,1-4.916-4.8L9.486,36.3l.025-.045.024-.046,1.173-1.931a17.335,17.335,0,0,1,6.617,1.863c1.063-1.6,2.209-3.178,3.406-4.68a17.168,17.168,0,0,1-3.82-5.72l1.476-1.71.034-.04.034-.039L20,22.307a17.318,17.318,0,0,1,6.09,3.2c1.391-1.369,2.837-2.673,4.3-3.876a17.184,17.184,0,0,1-2.545-6.386l1.8-1.366.041-.031.041-.031,1.857-1.289a17.322,17.322,0,0,1,5.284,4.39c1.6-1.024,3.289-2,5.013-2.9a17.181,17.181,0,0,1-1.158-6.77l2.045-.961.047-.023.046-.022,2.084-.874A17.3,17.3,0,0,1,49.2,10.76c1.809-.677,3.663-1.279,5.509-1.788a17.144,17.144,0,0,1,.275-6.859l2.2-.517.049-.011.051-.013L59.5,1.152a17.322,17.322,0,0,1,3.042,6.161c1.892-.28,3.829-.481,5.757-.6A17.174,17.174,0,0,1,70,.05L72.256,0h.1l2.259.05a17.319,17.319,0,0,1,1.7,6.667,66.587,66.587,0,0,1,6.871.773A17.209,17.209,0,0,1,86.315,1.3l2.214.45.051.01.05.01,2.193.544A17.359,17.359,0,0,1,91,9.285c1.862.549,3.693,1.177,5.441,1.866a17.232,17.232,0,0,1,4.379-5.457l2.072.9.048.021.048.02,2.032.988a17.367,17.367,0,0,1-1.3,6.92c1.644.892,3.3,1.887,4.908,2.954A17.265,17.265,0,0,1,114.1,13l1.841,1.312.041.03.042.03,1.783,1.389a17.381,17.381,0,0,1-2.758,6.566c1.45,1.236,2.855,2.543,4.178,3.883a17.258,17.258,0,0,1,6.34-3.3l1.527,1.665.035.039.035.038,1.454,1.729a17.389,17.389,0,0,1-4.1,5.886c1.173,1.518,2.277,3.082,3.282,4.647a17.289,17.289,0,0,1,6.92-1.924l1.148,1.947.026.044.026.045,1.064,1.993a17.382,17.382,0,0,1-5.254,4.918c.807,1.676,1.559,3.433,2.236,5.223a18.678,18.678,0,0,1,4.816-.639,13.109,13.109,0,0,1,2.382.187l.718,2.143.016.049.016.05.626,2.172a17.4,17.4,0,0,1-6.191,3.729c.453,1.86.825,3.732,1.107,5.563.337-.018.673-.026,1-.026a16.857,16.857,0,0,1,6.159,1.081l.257,2.245.006.051.005.051.161,2.255a17.407,17.407,0,0,1-6.855,2.364c.025.783.036,1.462.036,2.075,0,1.172-.033,2.38-.1,3.591a17.292,17.292,0,0,1,6.795,2.522l-.215,2.249-.005.052,0,.05-.311,2.238a16.828,16.828,0,0,1-5.744.943c-.476,0-.958-.018-1.433-.054-.325,1.831-.742,3.694-1.237,5.537a17.259,17.259,0,0,1,6.1,3.87l-.679,2.156-.015.049-.015.05L140.6,97.89h-.006a12.74,12.74,0,0,1-1.981.135,18.775,18.775,0,0,1-5.195-.754c-.716,1.766-1.5,3.494-2.343,5.137a17.28,17.28,0,0,1,5.15,5l-1.1,1.973-.024.046-.025.044-1.184,1.926a17.413,17.413,0,0,1-6.9-2.055c-1.041,1.542-2.179,3.078-3.379,4.564a17.283,17.283,0,0,1,4.028,5.99l-1.487,1.7-.034.038-.034.04-1.558,1.636a17.4,17.4,0,0,1-6.345-3.462c-1.357,1.316-2.784,2.584-4.239,3.771a17.294,17.294,0,0,1,2.7,6.705l-1.808,1.355-.041.031-.041.031-1.865,1.277a17.411,17.411,0,0,1-5.483-4.7c-1.612,1.016-3.271,1.965-4.927,2.819a17.258,17.258,0,0,1,1.24,7.1l-2.05.949-.047.022-.047.022-2.089.861a17.393,17.393,0,0,1-4.374-5.715c-1.746.644-3.569,1.225-5.415,1.729a17.3,17.3,0,0,1-.266,7.187l-2.2.5-.05.012-.05.011-2.222.409a17.38,17.38,0,0,1-3.087-6.484c-1.864.269-3.769.461-5.661.571a17.272,17.272,0,0,1-1.753,6.954l-2.26.033h0ZM72.042,15.762a56.879,56.879,0,1,0,56.879,56.879A56.944,56.944,0,0,0,72.042,15.762Z" transform="translate(29.96 71.13)" fill="#fff" stroke="#818ea3" stroke-miterlimit="10" stroke-width="1"/>
		</g>
		<g transform="translate(0 42)" fill="none" stroke="#e2e2e2" stroke-width="0.5">
			<circle cx="102" cy="102" r="102" stroke="none"/>
			<circle cx="102" cy="102" r="101.75" fill="none"/>
		</g>
	</g>
</svg>