<svg width="226" height="41" viewBox="0 0 226 41" fill="none" xmlns="http://www.w3.org/2000/svg">
<path d="M16.9738 24.1576L26.3605 1.2796H33.3506V31.1082H28.7306V5.85521L18.373 31.2676H15.0583L4.79165 6.01455V31.1203H0.350586V1.26758H7.65165L16.9738 24.1576Z" />
<path d="M51.6664 10.3693L62.3086 4.68929L60.5213 1.26758L50.7714 5.19418C50.5211 5.2958 50.2413 5.2958 49.991 5.19418L40.241 1.26758L38.4482 4.70026L49.0905 10.3802L38.4482 16.0602L40.241 19.4929L49.991 15.5361C50.2413 15.4345 50.5211 15.4345 50.7714 15.5361L60.5213 19.4737L62.3141 16.041L51.6664 10.3693Z" fill="#23F7DD"/>
<path d="M68.6895 31.2673H87.9295V28.5438H71.6326V16.6835H84.591V13.96H71.6326V3.24188H87.4463V0.518406H68.6895V31.2673Z" />
<path d="M109.874 31.2673L101.791 19.5827L109.127 9.12809H106.008L100.298 17.3864L94.5435 9.12809H91.4247L98.7605 19.5827L90.678 31.2673H93.6211L100.298 21.779L106.931 31.2673H109.874Z" />
<path d="M113.814 40.2284H116.582V27.2699C117.944 29.8616 121.018 31.6187 124.269 31.6187C131.297 31.6187 135.031 26.5232 135.031 20.1977C135.031 13.8722 131.297 8.77667 124.269 8.77667C121.018 8.77667 117.944 10.5337 116.582 13.1254V9.12809H113.814V40.2284ZM124.181 29.0709C119.393 29.0709 116.274 25.5568 116.274 20.1977C116.274 14.8386 119.393 11.3244 124.181 11.3244C128.969 11.3244 132.088 14.8386 132.088 20.1977C132.088 25.5568 128.969 29.0709 124.181 29.0709Z" />
<path d="M139.982 31.2673H142.749V0.166992H139.982V31.2673Z" />
<path d="M158.87 31.6187C165.371 31.6187 170.027 26.8746 170.027 20.1977C170.027 13.5208 165.371 8.77667 158.87 8.77667C152.369 8.77667 147.712 13.5208 147.712 20.1977C147.712 26.8746 152.369 31.6187 158.87 31.6187ZM158.87 29.0709C153.95 29.0709 150.611 25.3811 150.611 20.1977C150.611 15.0143 153.95 11.3244 158.87 11.3244C163.79 11.3244 167.128 15.0143 167.128 20.1977C167.128 25.3811 163.79 29.0709 158.87 29.0709Z" />
<path d="M186.671 11.6759V9.12809H183.772C180.345 9.12809 178.5 10.7534 177.622 13.8283V9.12809H174.854V31.2673H177.622V21.823C177.622 16.1564 178.896 11.6759 183.772 11.6759H186.671Z" />
<path d="M206.174 24.2829C205.427 27.3138 202.967 29.0709 199.057 29.0709C194.621 29.0709 191.194 25.425 191.019 20.4612H208.721C208.765 20.1537 208.809 19.407 208.809 19.0117C208.809 12.9058 204.724 8.77667 198.662 8.77667C192.424 8.77667 188.207 13.3011 188.207 20.022C188.207 26.611 192.776 31.6187 199.057 31.6187C204.548 31.6187 208.37 28.7195 209.073 24.2829H206.174ZM198.662 11.3244C202.879 11.3244 205.603 13.8283 205.91 17.9135H191.194C191.897 13.7843 194.621 11.3244 198.662 11.3244Z" />
<path d="M225.707 11.6759V9.12809H222.808C219.382 9.12809 217.537 10.7534 216.658 13.8283V9.12809H213.891V31.2673H216.658V21.823C216.658 16.1564 217.932 11.6759 222.808 11.6759H225.707Z" />
</svg>
