<svg width="386" height="48" viewBox="0 0 386 48" fill="none" xmlns="http://www.w3.org/2000/svg">
<path d="M15.464 29.1249L24.196 8.2434H30.6987V35.4689H26.4009V12.4197L16.7656 35.6143H13.6821L4.13136 12.5651V35.4799H0V8.23242H6.79192L15.464 29.1249Z"/>
<path d="M54.157 31.0623C53.4195 32.5471 52.285 33.7958 50.8808 34.6683C49.4767 35.5407 47.8586 36.0024 46.208 36.0014C40.2839 36.0014 36.2344 31.4958 36.2344 25.3V11.5391H40.6577V24.4741C40.6577 28.9769 43.2091 31.9321 47.2586 31.9321C51.4473 31.9321 54.1461 28.8808 54.1461 24.4741V11.5391H58.5312V35.4691H54.157V31.0623Z"/>
<path d="M90.5286 35.4677H84.8909C79.3515 35.4677 76.5572 32.8033 76.5572 27.4746V15.5082H71.3262V11.5377H76.5572V5.50098H80.9424V11.5377H90.5286V15.5082H80.9424V26.4566C80.9424 29.9441 82.0503 31.3957 85.8542 31.3957H90.5258L90.5286 35.4677Z"/>
<path d="M115.929 35.9054H112.426L101.202 11.5391H106.114L114.3 29.9949L122.443 11.5391H126.97L115.929 35.9054Z"/>
<path d="M151.198 24.0372H131.395C131.638 28.4934 134.817 31.9947 139.491 31.9947C144.258 31.9947 146.185 29.4264 146.572 28.6526H150.903C150.518 30.7352 147.481 36.0612 139.486 36.0612C132.118 36.0612 126.958 30.5377 126.958 23.5131C126.958 16.2965 132.113 10.9678 139.052 10.9678C146.043 10.9568 151.198 16.1895 151.198 24.0372ZM131.684 20.3549H146.332C145.222 16.7219 142.67 14.7352 139.057 14.7352C135.202 14.7352 132.601 16.8673 131.684 20.3549Z"/>
<path d="M159.832 35.4686H155.447V11.5386H159.832V15.9454C160.506 14.2002 162.528 11.3438 168.117 11.3438H170.687V15.7505H168.021C161.904 15.7505 159.835 17.6905 159.835 21.9519L159.832 35.4686Z"/>
<path d="M180.335 24.9696C175.759 24.4208 172.531 22.2421 172.531 17.8353C172.531 13.6206 176.482 10.8574 182.311 10.8574C190.358 10.8574 192.953 15.0255 193.728 17.4429H189.056C188.527 16.8118 186.742 14.6331 182.311 14.6331C178.698 14.6331 176.853 15.9392 176.853 17.6844C176.853 19.3801 178.059 20.4448 180.9 20.785C182.78 21.0265 183.934 21.1226 186.008 21.3668C191.643 22.0912 194.053 24.5141 194.053 28.9236C194.053 32.9435 190.391 36.1402 183.645 36.1402C175.265 36.1402 172.323 30.9569 171.794 28.7782H176.468C176.708 29.552 178.635 32.2657 183.645 32.2657C187.692 32.2657 189.667 30.8115 189.667 28.9236C189.667 27.0358 188.655 25.9053 185.43 25.5321L180.335 24.9696Z"/>
<path d="M93.8057 0H98.3818V6.92848H93.8057V0ZM93.9012 11.5246H98.2836V35.4574H93.9012V11.5246Z"/>
<path d="M64.0898 4.17969H68.475V35.4608H64.0898V4.17969Z"/>
<path d="M211.665 14.59L222.308 8.90999L220.52 5.48828L210.77 9.41488C210.52 9.5165 210.24 9.5165 209.99 9.41488L200.24 5.48828L198.447 8.92097L209.089 14.601L198.447 20.2809L200.24 23.7136L209.99 19.7568C210.24 19.6552 210.52 19.6552 210.77 19.7568L220.52 23.6944L222.313 20.2617L211.665 14.59Z" fill="#23F7DD"/>
<path d="M228.689 38.2673H247.929V35.5438H231.633V23.6835H244.591V20.96H231.633V10.2419H247.446V7.51841H228.689V38.2673Z"/>
<path d="M269.874 38.2673L261.791 26.5827L269.127 16.1281H266.008L260.298 24.3864L254.544 16.1281H251.425L258.761 26.5827L250.678 38.2673H253.621L260.298 28.779L266.931 38.2673H269.874Z"/>
<path d="M273.814 47.2284H276.582V34.2699C277.944 36.8616 281.018 38.6187 284.269 38.6187C291.297 38.6187 295.031 33.5232 295.031 27.1977C295.031 20.8722 291.297 15.7767 284.269 15.7767C281.018 15.7767 277.944 17.5337 276.582 20.1254V16.1281H273.814V47.2284ZM284.181 36.0709C279.393 36.0709 276.274 32.5568 276.274 27.1977C276.274 21.8386 279.393 18.3244 284.181 18.3244C288.969 18.3244 292.088 21.8386 292.088 27.1977C292.088 32.5568 288.969 36.0709 284.181 36.0709Z"/>
<path d="M299.982 38.2673H302.749V7.16699H299.982V38.2673Z"/>
<path d="M318.87 38.6187C325.371 38.6187 330.027 33.8746 330.027 27.1977C330.027 20.5208 325.371 15.7767 318.87 15.7767C312.369 15.7767 307.712 20.5208 307.712 27.1977C307.712 33.8746 312.369 38.6187 318.87 38.6187ZM318.87 36.0709C313.95 36.0709 310.611 32.3811 310.611 27.1977C310.611 22.0143 313.95 18.3244 318.87 18.3244C323.79 18.3244 327.128 22.0143 327.128 27.1977C327.128 32.3811 323.79 36.0709 318.87 36.0709Z"/>
<path d="M346.671 18.6759V16.1281H343.772C340.345 16.1281 338.5 17.7534 337.622 20.8283V16.1281H334.854V38.2673H337.622V28.823C337.622 23.1564 338.896 18.6759 343.772 18.6759H346.671Z"/>
<path d="M366.174 31.2829C365.427 34.3138 362.967 36.0709 359.057 36.0709C354.621 36.0709 351.194 32.425 351.019 27.4612H368.721C368.765 27.1537 368.809 26.407 368.809 26.0117C368.809 19.9058 364.724 15.7767 358.662 15.7767C352.424 15.7767 348.207 20.3011 348.207 27.022C348.207 33.611 352.776 38.6187 359.057 38.6187C364.548 38.6187 368.37 35.7195 369.073 31.2829H366.174ZM358.662 18.3244C362.879 18.3244 365.603 20.8283 365.91 24.9135H351.194C351.897 20.7843 354.621 18.3244 358.662 18.3244Z"/>
<path d="M385.707 18.6759V16.1281H382.808C379.382 16.1281 377.537 17.7534 376.658 20.8283V16.1281H373.891V38.2673H376.658V28.823C376.658 23.1564 377.932 18.6759 382.808 18.6759H385.707Z"/>
</svg>
