<svg width="44" height="44" viewBox="0 0 44 44" fill="none" xmlns="http://www.w3.org/2000/svg">
<path d="M23.5 6V2C23.5 1.17 22.83 0.5 22 0.5C21.17 0.5 20.5 1.17 20.5 2V6C20.5 6.83 21.17 7.5 22 7.5C22.83 7.5 23.5 6.83 23.5 6Z" fill="black"/>
<path d="M22 36.5C21.17 36.5 20.5 37.17 20.5 38V42C20.5 42.83 21.17 43.5 22 43.5C22.83 43.5 23.5 42.83 23.5 42V38C23.5 37.17 22.83 36.5 22 36.5Z" fill="black"/>
<path d="M10.69 12.19C11.07 12.19 11.46 12.04 11.75 11.75C12.34 11.16 12.34 10.21 11.75 9.63L8.91999 6.8C8.32999 6.21 7.37999 6.21 6.79999 6.8C6.21999 7.39 6.20999 8.34 6.79999 8.92L9.62999 11.75C9.91999 12.04 10.3 12.19 10.69 12.19Z" fill="black"/>
<path d="M34.37 32.25C33.78 31.66 32.83 31.66 32.25 32.25C31.67 32.84 31.66 33.79 32.25 34.37L35.08 37.2C35.37 37.49 35.76 37.64 36.14 37.64C36.52 37.64 36.91 37.49 37.2 37.2C37.79 36.61 37.79 35.66 37.2 35.08L34.37 32.25Z" fill="black"/>
<path d="M7.5 22C7.5 21.17 6.83 20.5 6 20.5H2C1.17 20.5 0.5 21.17 0.5 22C0.5 22.83 1.17 23.5 2 23.5H6C6.83 23.5 7.5 22.83 7.5 22Z" fill="black"/>
<path d="M42 20.5H38C37.17 20.5 36.5 21.17 36.5 22C36.5 22.83 37.17 23.5 38 23.5H42C42.83 23.5 43.5 22.83 43.5 22C43.5 21.17 42.83 20.5 42 20.5Z" fill="black"/>
<path d="M9.63001 32.25L6.80001 35.08C6.21001 35.67 6.21001 36.62 6.80001 37.2C7.09001 37.49 7.48001 37.64 7.86001 37.64C8.24001 37.64 8.63001 37.49 8.92001 37.2L11.75 34.37C12.34 33.78 12.34 32.83 11.75 32.25C11.16 31.67 10.21 31.67 9.63001 32.25Z" fill="black"/>
<path d="M34.37 11.75L37.2 8.92C37.79 8.33 37.79 7.38 37.2 6.8C36.61 6.22 35.66 6.21 35.08 6.8L32.25 9.63C31.66 10.22 31.66 11.17 32.25 11.75C32.54 12.04 32.93 12.19 33.31 12.19C33.69 12.19 34.08 12.04 34.37 11.75Z" fill="black"/>
<path d="M22 9.5C15.11 9.5 9.5 15.11 9.5 22C9.5 28.89 15.11 34.5 22 34.5C28.89 34.5 34.5 28.89 34.5 22C34.5 15.11 28.89 9.5 22 9.5ZM22 31.5C16.76 31.5 12.5 27.24 12.5 22C12.5 16.76 16.76 12.5 22 12.5C27.24 12.5 31.5 16.76 31.5 22C31.5 27.24 27.24 31.5 22 31.5Z" fill="black"/>
</svg>
