<?xml version="1.0" encoding="UTF-8"?>
<svg width="30px" height="30px" viewBox="0 0 30 30" version="1.1" xmlns="http://www.w3.org/2000/svg" xmlns:xlink="http://www.w3.org/1999/xlink">
    <!-- Generator: Sketch 64 (93537) - https://sketch.com -->
    <title>placeholder</title>
    <desc>Created with Sketch.</desc>
    <g id="placeholder" stroke="none" stroke-width="1" fill="none" fill-rule="evenodd">
        <g id="elrond-symbol" transform="translate(4.000000, 4.000000)" fill="#000000">
            <path d="M17.3333609,4.66620902 C17.2620405,4.59182616 17.2217799,4.49303751 17.2207861,4.38999024 C17.2200874,4.23277555 17.3142645,4.09065598 17.4593187,4.03003449 C17.6043729,3.969413 17.7716672,4.00225764 17.8830361,4.11322232 C17.9604629,4.19120058 18,4.28894798 18,4.38999024 C17.9979163,4.60445223 17.824576,4.77779782 17.6101205,4.77988174 C17.5066472,4.77997911 17.4073426,4.73911098 17.33391,4.66620902 M16.2312648,5.76888758 C16.1597562,5.69436046 16.1193091,5.59539948 16.1181448,5.49211966 C16.1181448,5.3910774 16.1571328,5.29387914 16.2312648,5.21590088 C16.3843293,5.06408427 16.6311702,5.06408427 16.7842348,5.21590088 C16.8583668,5.29387914 16.8973548,5.39162654 16.8973548,5.49211966 C16.8973548,5.58986706 16.8589159,5.69090932 16.7842348,5.76888758 C16.7103181,5.84098911 16.6112802,5.88155056 16.5080243,5.88201098 C16.4045782,5.88169296 16.3053178,5.84112101 16.2312648,5.76888758 M15.1291687,6.867173 C14.9775611,6.7146787 14.9780377,6.46822461 15.1302339,6.31631783 C15.2824301,6.16441106 15.5288772,6.16441106 15.6810734,6.31631783 C15.8332697,6.46822461 15.8337462,6.7146787 15.6821387,6.867173 C15.6094009,6.94160706 15.5097251,6.98356907 15.4056537,6.98356907 C15.3015822,6.98356907 15.2019064,6.94160706 15.1291687,6.867173 M14.0265234,7.96985156 C13.8766487,7.81748426 13.8766487,7.57307615 14.0265234,7.42070885 C14.1797107,7.26919059 14.4263061,7.26919059 14.5794934,7.42070885 C14.730259,7.57271032 14.730259,7.81785008 14.5794934,7.96985156 C14.5065613,8.04343947 14.4068797,8.08426458 14.303283,8.08297496 C14.1996394,8.08366664 14.1000101,8.04294391 14.0265234,7.96985156 M12.9282712,9.07253012 C12.8536366,9.00068677 12.8114642,8.90155477 12.8114642,8.79795876 C12.8114642,8.69436276 12.8536366,8.59523076 12.9282712,8.52338741 C13.0000342,8.44860749 13.0991924,8.40633362 13.2028342,8.40633362 C13.3064761,8.40633362 13.4056343,8.44860749 13.4773973,8.52338741 C13.550677,8.59490423 13.5913749,8.69337605 13.5899682,8.79576219 C13.5922635,8.89960372 13.5515214,8.99977285 13.4773973,9.07253012 C13.4046796,9.14671218 13.3044883,9.18746584 13.2006377,9.18510437 C13.0980649,9.18666252 12.9993686,9.14595157 12.9277221,9.07253012 M11.7086621,9.89844075 C11.7086621,9.80069335 11.7481992,9.69910195 11.8256259,9.62167283 C11.9367983,9.51013777 12.104391,9.47693448 12.249689,9.53765787 C12.394987,9.59838126 12.4891186,9.74096515 12.487872,9.89844075 C12.4891616,10.0020406 12.4483377,10.1017252 12.3747521,10.1746595 C12.2626545,10.2849385 12.0954587,10.3174512 11.9502052,10.2572165 C11.8049517,10.1969818 11.7098267,10.0556881 11.7086621,9.89844075 L11.7086621,9.89844075 Z M10.7235298,11.2767889 C10.6499976,11.2038189 10.6091834,11.104158 10.6104098,11.0005702 C10.6104098,10.7866039 10.7838585,10.61315 10.9978183,10.61315 C11.2117781,10.61315 11.3852268,10.7866039 11.3852268,11.0005702 C11.3867474,11.1042675 11.3461246,11.2041432 11.2726559,11.2773381 C11.1206591,11.4281083 10.8755267,11.4281083 10.7235298,11.2773381 M9.62088458,12.3756235 C9.47011895,12.223622 9.47011895,11.9784823 9.62088458,11.8264808 C9.69369561,11.7536456 9.79246175,11.7127253 9.89544764,11.7127253 C9.99843353,11.7127253 10.0971997,11.7536456 10.1700107,11.8264808 C10.2479866,11.9039099 10.2869746,12.0011082 10.2869746,12.1026996 C10.2869317,12.2058382 10.2446655,12.3044624 10.1700107,12.3756235 C10.0989644,12.450048 10.0005336,12.4921205 9.89764415,12.4920436 C9.79342375,12.492361 9.69354094,12.4503456 9.62088458,12.3756235 M8.51878847,13.4777529 C8.36771201,13.3253608 8.36842026,13.0794551 8.52037204,12.9279357 C8.67232382,12.7764164 8.91822312,12.7764164 9.07017489,12.9279357 C9.22212667,13.0794551 9.22283492,13.3253608 9.07175847,13.4777529 C8.99909623,13.5523267 8.89939222,13.5943861 8.79527347,13.5943861 C8.69115471,13.5943861 8.5914507,13.5523267 8.51878847,13.4777529 M7.41614322,14.5798823 C7.3433102,14.5070691 7.30239119,14.4083 7.30239119,14.305311 C7.30239119,14.202322 7.3433102,14.1035529 7.41614322,14.0307396 C7.56927213,13.8785596 7.81653344,13.8785596 7.96966235,14.0307396 C8.12042798,14.1827411 8.12042798,14.4278809 7.96966235,14.5798823 C7.89672546,14.6538637 7.79678184,14.6949132 7.69290279,14.6935549 C7.58902373,14.6949132 7.48908012,14.6538637 7.41614322,14.5798823 M6.31789099,15.6825609 C6.24253781,15.6102913 6.20023869,15.5102002 6.20091885,15.405793 C6.20091885,15.3085947 6.23991508,15.2081016 6.31789099,15.1295742 C6.47107933,14.9817255 6.71382876,14.9817255 6.86701711,15.1295742 C6.93844375,15.2039328 6.9788888,15.3026924 6.98013985,15.405793 C6.98052596,15.509381 6.93985005,15.6089018 6.86701711,15.6825609 C6.79391615,15.7562332 6.69403197,15.7970601 6.59025754,15.7956843 C6.48780565,15.7968824 6.38934944,15.7559901 6.31789099,15.6825609 M5.21524575,16.7852395 C5.14014918,16.7128386 5.09806407,16.6127842 5.09883101,16.5084715 C5.09883101,16.4112733 5.13726984,16.3096819 5.21524575,16.2317036 C5.36843409,16.0838549 5.61118352,16.0838549 5.76437186,16.2317036 C5.83766328,16.3051023 5.87858702,16.4047458 5.87804097,16.5084715 C5.88012663,16.6123824 5.83919111,16.7125384 5.76492099,16.7852395 C5.61243798,16.9348246 5.36827788,16.9348246 5.21579487,16.7852395 M4.11314963,17.8873689 C4.03956394,17.8144346 3.99874006,17.71475 4.00002965,17.6111501 C3.99878308,17.4536745 4.09291466,17.3110906 4.23821268,17.2503672 C4.38351069,17.1896438 4.55110334,17.2228471 4.66227575,17.3343822 C4.73670756,17.4071221 4.7786683,17.5068009 4.7786683,17.6108755 C4.7786683,17.7149502 4.73670756,17.8146289 4.66227575,17.8873689 C4.51003417,18.0375437 4.26539121,18.0375437 4.11314963,17.8873689" id="Shape"></path>
            <path d="M4.36555106,4.37512779 C4.44046411,4.29741498 4.4828441,4.1940742 4.48404,4.08621038 C4.48477185,3.92176804 4.38612826,3.7731148 4.23419467,3.70970635 C4.08226108,3.6462979 3.90703265,3.68065251 3.79038186,3.79671858 C3.71223852,3.87284709 3.66808105,3.97719055 3.66787082,4.08621038 C3.67005332,4.31053184 3.85161459,4.49184666 4.07624095,4.49402621 C4.18207208,4.49402621 4.28847839,4.45324462 4.36555106,4.37512779 M5.52049081,5.52849988 C5.59518068,5.45045713 5.63733614,5.34695706 5.6384005,5.23900808 C5.63795235,5.13110611 5.59569678,5.0275661 5.52049081,4.95009067 C5.36016695,4.79129459 5.10161929,4.79129459 4.94129543,4.95009067 C4.86582796,5.02744149 4.82335298,5.1310139 4.82281057,5.23900808 C4.82281057,5.34124923 4.86307242,5.44693671 4.94129543,5.52849988 C5.02296945,5.60604233 5.1247744,5.64682391 5.23060554,5.64682391 C5.33643667,5.64682391 5.43881679,5.60661672 5.52049081,5.52849988 M6.6748554,6.67727686 C6.83365318,6.51777194 6.833154,6.25998759 6.67373965,6.10109719 C6.51432531,5.94220679 6.2561901,5.94220679 6.09677576,6.10109719 C5.93736141,6.25998759 5.93686223,6.51777194 6.09566001,6.67727686 C6.17184745,6.75513289 6.27625048,6.79902402 6.3852577,6.79902402 C6.49426493,6.79902402 6.59866796,6.75513289 6.6748554,6.67727686 M7.82979515,7.83064896 C7.98677792,7.67127686 7.98677792,7.41563256 7.82979515,7.25626046 C7.66934273,7.09777645 7.41105218,7.09777645 7.25059977,7.25626046 C7.09268386,7.41524992 7.09268386,7.67165951 7.25059977,7.83064896 C7.33227379,7.91221212 7.43407874,7.94897299 7.53990987,7.94897299 C7.64846888,7.94969647 7.75282323,7.90710159 7.82979515,7.83064896 M8.98013355,8.98402105 C9.05830784,8.90887484 9.10248022,8.80518543 9.10248022,8.6968268 C9.10248022,8.58846817 9.05830784,8.48477876 8.98013355,8.40963256 C8.90496706,8.33141477 8.80110615,8.28719745 8.69254895,8.28719745 C8.58399176,8.28719745 8.48013084,8.33141477 8.40496435,8.40963256 C8.32799783,8.48433964 8.28515674,8.58735099 8.2864795,8.69452925 C8.2864795,8.80021673 8.32329033,8.9064786 8.40496435,8.98402105 C8.48261219,9.06558421 8.5890185,9.10177069 8.69484963,9.10177069 C8.80208834,9.10324211 8.90522721,9.06067201 8.98013355,8.98402105 M10.2570092,9.84790134 C10.2561869,9.73912072 10.2123601,9.63507018 10.1350733,9.55840954 C10.0186284,9.44174687 9.84308742,9.40701712 9.69089844,9.47053216 C9.53870946,9.53404719 9.44011356,9.6831861 9.44141925,9.84790134 C9.44141925,9.95358882 9.47823008,10.0552556 9.55990411,10.1368188 C9.67731809,10.2521676 9.85244338,10.286175 10.0045857,10.2231711 C10.1567281,10.1601672 10.2563645,10.0123778 10.2575843,9.84790134 L10.2570092,9.84790134 Z M11.2894379,11.2896165 C11.3664575,11.2132918 11.4092073,11.1090491 11.4079227,11.000699 C11.4079227,10.7768961 11.226248,10.595468 11.0021409,10.595468 C10.7780337,10.595468 10.596359,10.7768961 10.596359,11.000699 C10.596359,11.1063865 10.6325947,11.2086277 10.7142687,11.2901908 C10.8734742,11.4478924 11.1302323,11.4478924 11.2894379,11.2901908 M12.4438025,12.4389678 C12.6017184,12.2799784 12.6017184,12.0235688 12.4438025,11.8645793 C12.3675383,11.7883957 12.264088,11.7455942 12.1562179,11.7455942 C12.0483477,11.7455942 11.9448975,11.7883957 11.8686333,11.8645793 C11.7905228,11.9404938 11.746357,12.0446498 11.7461222,12.1534967 C11.7461222,12.2551635 11.7875344,12.3614254 11.8692084,12.4389678 C11.9436242,12.5168139 12.0467232,12.5608206 12.1544924,12.5607387 C12.2634561,12.5609164 12.3678392,12.5169816 12.4438025,12.4389678 M13.5987422,13.5917655 C13.7567489,13.4322846 13.7558355,13.1752226 13.5966995,13.0168655 C13.4375635,12.8585084 13.1801504,12.8585084 13.0210144,13.0168655 C12.8618784,13.1752226 12.860965,13.4322846 13.0189717,13.5917655 C13.09508,13.6697677 13.1995126,13.7137607 13.3085694,13.7137607 C13.4176261,13.7137607 13.5220587,13.6697677 13.5981671,13.5917655 M14.7531068,14.7445632 C14.829394,14.6684026 14.8722537,14.5650927 14.8722537,14.457369 C14.8722537,14.3496453 14.829394,14.2463354 14.7531068,14.1701747 C14.592783,14.0113787 14.3342353,14.0113787 14.1739114,14.1701747 C14.0159955,14.3291642 14.0159955,14.5855738 14.1739114,14.7445632 C14.2555855,14.8267008 14.3579656,14.8634617 14.4637967,14.8634617 C14.5724036,14.8647256 14.6768498,14.8218011 14.7531068,14.7445632 M15.9034452,15.8979353 C15.9823721,15.8223432 16.0266773,15.7176507 16.0259563,15.6084435 C16.0251074,15.4998367 15.9812731,15.3959746 15.9040204,15.3195261 C15.7435669,15.1648803 15.4893047,15.1648803 15.3288512,15.3195261 C15.254037,15.3973032 15.2116738,15.5006031 15.2103663,15.6084435 C15.2103663,15.7147054 15.2506282,15.8209673 15.3288512,15.8979353 C15.4105252,15.9794985 15.5129053,16.0162594 15.6181613,16.0162594 C15.725671,16.0176706 15.8290347,15.9748859 15.9040204,15.8979353 M17.058385,17.0513074 C17.1372548,16.9756761 17.1815491,16.8710092 17.1809031,16.7618156 C17.1800467,16.6529267 17.1359889,16.5488188 17.058385,16.4723238 C16.8979315,16.317678 16.6436693,16.317678 16.4832158,16.4723238 C16.4066592,16.5491913 16.3640065,16.653404 16.3647218,16.7618156 C16.3647218,16.8675031 16.4015417,16.973765 16.4832158,17.0513074 C16.6429305,17.2077694 16.8986702,17.2077694 17.058385,17.0513074 M18.2133247,18.2041051 C18.2904003,18.1278178 18.3331603,18.0235504 18.3318096,17.9151877 C18.3331153,17.7504725 18.2345194,17.6013336 18.0823304,17.5378185 C17.9301414,17.4743035 17.7546004,17.5090332 17.6381555,17.6256959 C17.5601937,17.7017799 17.5162429,17.8060413 17.5162429,17.9149005 C17.5162429,18.0237598 17.5601937,18.1280211 17.6381555,18.2041051 C17.7976174,18.361184 18.0538629,18.361184 18.2133247,18.2041051 M7.11025848,4.68759513 L4.63242957,2.21255512 C6.54716783,0.740397411 8.66321532,0.00230819903 10.980572,5.310178e-06 C13.2858502,-0.0022869089 15.4036232,0.737525469 17.3333158,2.21715022 L14.8508856,4.69563657 C13.666037,3.92595599 12.3753573,3.5411157 10.9782714,3.54398764 C9.56335512,3.54685958 8.27497611,3.92940232 7.11025848,4.68702074 L7.11025848,4.68759513 Z M4.66751489,14.8646104 L2.19141148,17.3373529 C0.729331374,15.422916 -0.00285901825,13.3097408 8.38920054e-06,10.9961039 C0.00174233536,8.66121472 0.730481712,6.54746507 2.18450945,4.65485498 L4.65946252,7.12759744 C3.8829841,8.30049874 3.49186904,9.58942652 3.4889932,10.9949552 C3.48669252,12.3821034 3.88068342,13.6716055 4.66809006,14.8657592 L4.66751489,14.8646104 Z M14.8710165,17.324142 L17.3390675,19.788843 C15.4479112,21.2443434 13.3410664,21.9812838 11.0185332,21.9996643 C8.67356837,22.0180447 6.54256648,21.2816787 4.62552754,19.7940125 L7.09012756,17.3321834 C8.27727679,18.1380504 9.58176054,18.5383992 11.004154,18.5286346 C12.404691,18.51887 13.69307,18.1162237 14.8710165,17.324142 L14.8710165,17.324142 Z M17.3114594,7.12529989 L19.7904387,4.6491111 C21.2812772,6.56297355 22.018069,8.69108292 21.9996636,11.0334392 C21.9812582,13.3430553 21.2421657,15.4458916 19.7829615,17.3425224 L17.3062829,14.8692055 C18.0706828,13.7089408 18.462373,12.4412654 18.4796281,11.0638818 C18.496308,9.63595199 18.1057681,8.32347428 17.3114594,7.12529989 L17.3114594,7.12529989 Z M19.8841913,18.1190956 C20.8354157,18.1190956 21.6065354,18.8891687 21.6065354,19.839102 C21.6065354,20.7890352 20.8354157,21.5591083 19.8841913,21.5591083 C18.9329668,21.5591083 18.1618471,20.7890352 18.1618471,19.839102 C18.1618471,18.8891687 18.9329668,18.1190956 19.8841913,18.1190956 M2.13619524,18.122542 C3.08741966,18.122542 3.85853941,18.892615 3.85853941,19.8425483 C3.85853941,20.7924816 3.08741966,21.5625546 2.13619524,21.5625546 C1.18497082,21.5625546 0.413851067,20.7924816 0.413851067,19.8425483 C0.413851067,18.892615 1.18497082,18.122542 2.13619524,18.122542 M19.900296,0.382553381 C20.8513616,0.382553381 21.6223526,1.15249787 21.6223526,2.10227253 C21.6223526,3.05204718 20.8513616,3.82199167 19.900296,3.82199167 C18.9492304,3.82199167 18.1782394,3.05204718 18.1782394,2.10227253 C18.1782394,1.15249787 18.9492304,0.382553381 19.900296,0.382553381 M2.09248238,0.352110791 C2.70771395,0.352110791 3.27621136,0.679887397 3.58382715,1.21197036 C3.89144294,1.74405331 3.89144294,2.39960656 3.58382715,2.93168952 C3.27621136,3.46377247 2.70771395,3.79154908 2.09248238,3.79154908 C1.14141679,3.79154908 0.370425793,3.02160459 0.370425793,2.07182994 C0.370425793,1.12205528 1.14141679,0.352110791 2.09248238,0.352110791" id="Shape"></path>
        </g>
    </g>
</svg>