<svg
	xmlns="http://www.w3.org/2000/svg"
	xmlns:xlink="http://www.w3.org/1999/xlink" width="615" height="616" viewBox="0 0 615 616">
	<defs>
		<clipPath id="big-gear-d">
			<rect width="615" height="616"/>
		</clipPath>
	</defs>
	<g id="big-gear-c" clip-path="url(#big-gear-d)">
		<g transform="translate(-0.21 0.449)">
			<g transform="matrix(1, 0, 0, 1, 0.21, -0.45)">
				<path class="gear-teeth" d="M47.565,264.952h0l-.217-.005-.218,0v-.01l-9.574-.256a52.762,52.762,0,0,1-3.276-8.057,79.63,79.63,0,0,1-3.8-21.4c-8.15-.515-16.239-1.371-24.04-2.542a79.657,79.657,0,0,1-8.39,19.946,52.077,52.077,0,0,1-4.944,7.106l-9.4-1.851,0,.01-.212-.051-.215-.042,0-.01-9.311-2.242a52.7,52.7,0,0,1-1.517-8.472,79.69,79.69,0,0,1,.675-21.513c-7.733-2.155-15.493-4.691-23.064-7.537a79.772,79.772,0,0,1-12.286,17.584,53.561,53.561,0,0,1-6.254,5.862l-8.807-3.764,0,.009-.2-.095-.2-.086,0-.01-8.643-4.127a52.908,52.908,0,0,1,.271-8.527A79.7,79.7,0,0,1-81,204.134c-7.274-3.8-14.363-7.91-21.068-12.2a79.7,79.7,0,0,1-15.573,14.492,52.621,52.621,0,0,1-7.272,4.389l-7.831-5.512-.006.007-.173-.132-.18-.127.006-.008-7.594-5.835h0V199.2a52.7,52.7,0,0,1,2.013-8.2,79.618,79.618,0,0,1,9.133-19.1c-6.149-5.081-12.248-10.592-18.127-16.378a79.626,79.626,0,0,1-18.116,10.809,52.49,52.49,0,0,1-7.957,2.752l-6.512-7.021-.008.005-.142-.166-.148-.159.007-.006-6.216-7.285h0v0a52.435,52.435,0,0,1,3.63-7.526,79.6,79.6,0,0,1,12.737-16.649c-5.015-6.3-9.832-12.925-14.32-19.692a79.557,79.557,0,0,1-19.77,6.822,53.449,53.449,0,0,1-8.268,1.071l-4.963-8.191-.008,0-.106-.192-.112-.185.007-.006-4.615-8.391a52.545,52.545,0,0,1,5.058-6.62,79.607,79.607,0,0,1,15.776-13.7c-3.712-7.426-7.08-14.966-10.012-22.41a78.95,78.95,0,0,1-19.78,2.554,54.71,54.71,0,0,1-9.229-.676l-3.149-9.044-.01,0-.062-.209-.072-.207.007,0-2.768-9.167h0l0,0a52.739,52.739,0,0,1,6.313-5.416,79.573,79.573,0,0,1,18.264-10.118c-2-7.727-3.7-15.806-5.062-24.011-1.187.053-2.4.08-3.6.08A78.751,78.751,0,0,1-249.156.426a50.452,50.452,0,0,1-6.933-2.137l-1.2-9.5-.01,0-.017-.218-.028-.218h.009l-.8-9.544a52.065,52.065,0,0,1,7.329-4,79.6,79.6,0,0,1,20.023-6.1c-.19-4.385-.283-8.4-.283-12.26s.092-7.889.283-12.262a79.593,79.593,0,0,1-20.023-6.1,50.809,50.809,0,0,1-7.329-4l.8-9.542-.009,0,.026-.217.019-.218h.01l1.2-9.5a49.74,49.74,0,0,1,6.934-2.137,78.69,78.69,0,0,1,18.29-2.138c1.192,0,2.4.027,3.594.08,1.364-8.215,3.067-16.294,5.062-24.013a79.59,79.59,0,0,1-18.264-10.116,51.273,51.273,0,0,1-6.317-5.42l2.767-9.168-.007,0,.072-.205.062-.211.01,0,3.147-9.045a54.524,54.524,0,0,1,9.233-.677,78.93,78.93,0,0,1,19.778,2.553c2.932-7.446,6.3-14.986,10.01-22.409A79.563,79.563,0,0,1-217.492-182a52.28,52.28,0,0,1-5.057-6.62l4.615-8.392-.007,0,.112-.188.106-.192.008.005,4.96-8.193a52.641,52.641,0,0,1,8.271,1.073,79.558,79.558,0,0,1,19.77,6.823c4.516-6.812,9.372-13.485,14.431-19.833a79.526,79.526,0,0,1-12.609-16.7,51.934,51.934,0,0,1-3.577-7.539l6.258-7.25-.007-.005.149-.159.144-.165.006.005,6.555-6.982a52.749,52.749,0,0,1,7.875,2.772,79.557,79.557,0,0,1,17.935,10.8c5.914-5.815,12.04-11.342,18.208-16.428A79.551,79.551,0,0,1-138.2-278.12a51.342,51.342,0,0,1-1.931-8.115l7.629-5.79-.005-.008.18-.125.175-.131,0,.006,7.865-5.465a52.6,52.6,0,0,1,7.115,4.34,79.614,79.614,0,0,1,15.278,14.263c6.809-4.349,13.957-8.479,21.246-12.277a79.57,79.57,0,0,1-4.712-20.358,52.283,52.283,0,0,1-.2-8.329l8.665-4.076,0-.008.2-.085.2-.093,0,.008,8.828-3.711h0l0,0a53.092,53.092,0,0,1,6.046,5.715,79.564,79.564,0,0,1,11.972,17.11c7.64-2.86,15.495-5.411,23.346-7.58a79.5,79.5,0,0,1-.374-20.883,52.8,52.8,0,0,1,1.536-8.185l9.323-2.187,0-.007.214-.042.214-.051,0,.01,9.406-1.795h0l0,0a52.267,52.267,0,0,1,4.732,6.856,79.593,79.593,0,0,1,8.157,19.247c7.992-1.186,16.2-2.036,24.4-2.526a79.546,79.546,0,0,1,3.974-20.549A52.581,52.581,0,0,1,38.5-350.64l9.575-.2v-.007l.219,0,.218,0v.007l9.576.2h0l0,0a52.787,52.787,0,0,1,3.206,7.7,79.526,79.526,0,0,1,3.975,20.549,282.1,282.1,0,0,1,29.118,3.278,79.615,79.615,0,0,1,8.41-19.343,52.579,52.579,0,0,1,4.858-6.875l9.384,1.905,0-.008.212.051.214.044,0,.009,9.3,2.293h0v.005a53.467,53.467,0,0,1,1.452,8.335,79.686,79.686,0,0,1-.7,21.191c7.9,2.331,15.658,4.991,23.062,7.907a79.659,79.659,0,0,1,12.32-17.351,51.721,51.721,0,0,1,6.237-5.774l8.783,3.815,0-.01.2.1.2.085,0,.01,8.617,4.177a52.859,52.859,0,0,1-.321,8.553,79.664,79.664,0,0,1-5.2,20.776c6.972,3.787,13.969,8,20.8,12.516a79.711,79.711,0,0,1,15.8-14.625,51.985,51.985,0,0,1,7.391-4.413l7.8,5.558.005-.008.173.135.178.127-.005.007,7.561,5.877a53.485,53.485,0,0,1-2.124,8.4,79.677,79.677,0,0,1-9.561,19.426c6.125,5.223,12.081,10.76,17.7,16.457a79.733,79.733,0,0,1,18.636-11.164A53.45,53.45,0,0,1,274-253.733l6.475,7.057.006-.006.142.167.149.161-.008.005,6.173,7.321a53.114,53.114,0,0,1-3.856,7.833,79.695,79.695,0,0,1-13.517,17.112c4.963,6.429,9.643,13.055,13.91,19.694a79.691,79.691,0,0,1,20.646-7.108,52.772,52.772,0,0,1,8.68-1.048l4.866,8.25.007,0,.1.192.112.189-.008,0,4.517,8.445a53.223,53.223,0,0,1-5.421,6.884,79.659,79.659,0,0,1-16.847,13.957c3.4,7.068,6.592,14.515,9.479,22.132a79.149,79.149,0,0,1,20.4-2.706,55.167,55.167,0,0,1,10.1.794l3.045,9.081.007,0,.061.209.07.209-.01,0,2.663,9.2a53.218,53.218,0,0,1-6.765,5.63,77.2,77.2,0,0,1-8.225,5.149,80.452,80.452,0,0,1-11.247,5.024c1.919,7.877,3.5,15.809,4.693,23.575,1.4-.074,2.827-.112,4.236-.112a78.791,78.791,0,0,1,18.922,2.29,50.661,50.661,0,0,1,7.177,2.291l1.088,9.513h.01l.017.218.024.217-.01,0,.691,9.551h0l0,0a53.532,53.532,0,0,1-7.811,4.111,77.39,77.39,0,0,1-9.148,3.333,80.4,80.4,0,0,1-12.087,2.572c.1,3.268.152,6.144.152,8.792,0,4.946-.14,10.066-.418,15.217a80.394,80.394,0,0,1,12.019,2.853,77.1,77.1,0,0,1,9.063,3.542,53.1,53.1,0,0,1,7.713,4.291l-.91,9.535.007,0-.029.216-.021.216h-.009l-1.309,9.487-.005,0a49.543,49.543,0,0,1-6.678,2,78.324,78.324,0,0,1-17.648,2c-2.014,0-4.061-.078-6.084-.231-1.37,7.723-3.132,15.618-5.237,23.466a79.716,79.716,0,0,1,19.22,10.618,53.785,53.785,0,0,1,6.627,5.781l-2.875,9.138.01,0-.074.205-.067.209-.009,0L337.691,64a53.025,53.025,0,0,1-8.424.579,79.534,79.534,0,0,1-22.007-3.193c-3.029,7.464-6.37,14.789-9.929,21.772a79.672,79.672,0,0,1,16.544,14.225,53.772,53.772,0,0,1,5.282,6.959l-4.665,8.364.008.006-.114.185-.106.19-.007,0-5.009,8.162a53.213,53.213,0,0,1-8.684-1.2,79.652,79.652,0,0,1-20.563-7.5c-4.4,6.52-9.223,13.028-14.324,19.341a79.684,79.684,0,0,1,13.324,17.433,53.327,53.327,0,0,1,3.745,7.951l-6.3,7.213.008.005-.152.157-.144.166-.006-.006-6.6,6.943a53.28,53.28,0,0,1-8.276-3,77.152,77.152,0,0,1-8.6-4.5,80.456,80.456,0,0,1-10.015-7.174c-5.768,5.589-11.812,10.965-17.964,15.98a80.432,80.432,0,0,1,5.958,10.783,77.021,77.021,0,0,1,3.47,9.064,53.231,53.231,0,0,1,2.014,8.564v.005l-7.664,5.744.006.008-.18.123-.177.13,0-.007-7.9,5.419a53.122,53.122,0,0,1-7.466-4.648,79.669,79.669,0,0,1-15.769-15.272c-6.826,4.3-13.853,8.32-20.884,11.946a79.681,79.681,0,0,1,5.071,21.325,53.111,53.111,0,0,1,.186,8.774l-8.69,4.029,0,.007-.2.083-.2.093,0-.01-8.849,3.659a52.858,52.858,0,0,1-6.315-6.075A79.619,79.619,0,0,1,144.9,218.65c-7.39,2.724-15.111,5.189-22.947,7.326a79.724,79.724,0,0,1,.51,21.858,53.721,53.721,0,0,1-1.639,8.6l-9.337,2.131v.008l-.214.04-.212.05,0-.01-9.419,1.74h0l0,0a53.928,53.928,0,0,1-4.9-7.234,79.651,79.651,0,0,1-8.177-20.243c-7.911,1.141-15.983,1.954-23.99,2.416a79.7,79.7,0,0,1-4.049,21.426,53.31,53.31,0,0,1-3.382,8.044l-9.577.145v.009Zm.8-563.8c-141.435,0-256.5,115.065-256.5,256.5s115.065,256.5,256.5,256.5,256.5-115.065,256.5-256.5S189.8-298.849,48.364-298.849Z" transform="translate(258.29 350.95)" fill="#fff" stroke="#818ea3" stroke-miterlimit="10" stroke-width="0.5"/>
			</g>
		</g>
	</g>
</svg>