<?xml version="1.0" encoding="UTF-8"?>
<svg width="24px" height="28px" viewBox="0 0 24 28" version="1.1" xmlns="http://www.w3.org/2000/svg" xmlns:xlink="http://www.w3.org/1999/xlink">
    <!-- Generator: Sketch 64 (93537) - https://sketch.com -->
    <title>shard-3</title>
    <desc>Created with Sketch.</desc>
    <g id="Page-1" stroke="none" stroke-width="1" fill="none" fill-rule="evenodd">
        <g id="shard-3" transform="translate(2.000000, 2.000000)" fill-rule="nonzero">
            <path d="M10.0024702,-0.75 C7.1293203,-0.75 4.42758413,0.383027375 2.39602651,2.44200351 C0.36779234,4.49714395 -0.75,7.22878791 -0.75,10.1351616 C-0.75,13.0415267 0.367800776,15.7736231 2.3960864,17.8288157 L8.67904509,24.1951232 C9.04372741,24.5653727 9.52365483,24.75 10.0024702,24.75 C10.4812856,24.75 10.961213,24.5653727 11.3264141,24.1945971 L17.608854,17.8288157 C19.7021709,15.7077292 20.75,12.9218525 20.75,10.1353793 C20.75,7.34890604 19.7021709,4.56302934 17.608854,2.44194282 C15.5768504,0.382982893 12.875588,-0.75 10.0024702,-0.75 Z" id="Path-Copy-2" stroke="#333333" stroke-width="1.5" fill="#1B46C2"></path>
            <path d="M9.6328125,14.8828125 C10.4335938,14.8828125 11.0800781,14.7587891 11.5722656,14.5107422 C12.0644531,14.2626953 12.4414062,13.9091797 12.703125,13.4501953 C12.9648438,12.9912109 13.0957031,12.5117188 13.0957031,12.0117188 C13.0957031,11.6132812 13.0166016,11.2705078 12.8583984,10.9833984 C12.7001953,10.6962891 12.4785156,10.4648438 12.1933594,10.2890625 C12.0175781,10.1796875 11.7636719,10.0839844 11.4316406,10.0019531 C11.8417969,9.77539062 12.1484375,9.51171875 12.3515625,9.2109375 C12.5546875,8.91015625 12.65625,8.57421875 12.65625,8.203125 C12.65625,7.5703125 12.40625,7.04492188 11.90625,6.62695312 C11.40625,6.20898438 10.5957031,6 9.47460938,6 C8.49804688,6 7.74316406,6.19140625 7.20996094,6.57421875 C6.67675781,6.95703125 6.31640625,7.5078125 6.12890625,8.2265625 L6.12890625,8.2265625 L8.38476562,8.63085938 C8.44726562,8.20507812 8.56640625,7.90722656 8.7421875,7.73730469 C8.91796875,7.56738281 9.14648438,7.48242188 9.42773438,7.48242188 C9.70117188,7.48242188 9.91601562,7.56054688 10.0722656,7.71679688 C10.2285156,7.87304688 10.3066406,8.08203125 10.3066406,8.34375 C10.3066406,8.6171875 10.2021484,8.85351562 9.99316406,9.05273438 C9.78417969,9.25195312 9.5234375,9.3515625 9.2109375,9.3515625 C9.13671875,9.3515625 9.03320312,9.34179688 8.90039062,9.32226562 L8.90039062,9.32226562 L8.77734375,11.0273438 C9.10546875,10.9335938 9.36328125,10.8867188 9.55078125,10.8867188 C9.90234375,10.8867188 10.1806641,10.9960938 10.3857422,11.2148438 C10.5908203,11.4335938 10.6933594,11.7421875 10.6933594,12.140625 C10.6933594,12.53125 10.5869141,12.84375 10.3740234,13.078125 C10.1611328,13.3125 9.89453125,13.4296875 9.57421875,13.4296875 C9.26953125,13.4296875 9.01855469,13.3369141 8.82128906,13.1513672 C8.62402344,12.9658203 8.47851562,12.6328125 8.38476562,12.1523438 L8.38476562,12.1523438 L6,12.46875 C6.15625,13.0039062 6.37988281,13.4482422 6.67089844,13.8017578 C6.96191406,14.1552734 7.33300781,14.4238281 7.78417969,14.6074219 C8.23535156,14.7910156 8.8515625,14.8828125 9.6328125,14.8828125 Z" id="3" fill="#FFFFFF"></path>
        </g>
    </g>
</svg>