<?xml version="1.0" encoding="UTF-8"?>
<svg width="24px" height="28px" viewBox="0 0 24 28" version="1.1" xmlns="http://www.w3.org/2000/svg" xmlns:xlink="http://www.w3.org/1999/xlink">
    <!-- Generator: Sketch 64 (93537) - https://sketch.com -->
    <title>shard-5</title>
    <desc>Created with Sketch.</desc>
    <g id="Page-1" stroke="none" stroke-width="1" fill="none" fill-rule="evenodd">
        <g id="shard-5" transform="translate(2.000000, 2.000000)" fill-rule="nonzero">
            <path d="M10.0024702,-0.75 C7.1293203,-0.75 4.42758413,0.383027375 2.39602651,2.44200351 C0.36779234,4.49714395 -0.75,7.22878791 -0.75,10.1351616 C-0.75,13.0415267 0.367800776,15.7736231 2.3960864,17.8288157 L8.67904509,24.1951232 C9.04372741,24.5653727 9.52365483,24.75 10.0024702,24.75 C10.4812856,24.75 10.961213,24.5653727 11.3264141,24.1945971 L17.608854,17.8288157 C19.7021709,15.7077292 20.75,12.9218525 20.75,10.1353793 C20.75,7.34890604 19.7021709,4.56302934 17.608854,2.44194282 C15.5768504,0.382982893 12.875588,-0.75 10.0024702,-0.75 Z" id="Path-Copy-5" stroke="#333333" stroke-width="1.5" fill="#1B46C2"></path>
            <path d="M9.61523438,14.7363281 C10.4042969,14.7363281 11.0517578,14.6015625 11.5576172,14.3320312 C12.0634766,14.0625 12.4541016,13.671875 12.7294922,13.1601562 C13.0048828,12.6484375 13.1425781,12.1152344 13.1425781,11.5605469 C13.1425781,10.7714844 12.875,10.1171875 12.3398438,9.59765625 C11.8046875,9.078125 11.1074219,8.81835938 10.2480469,8.81835938 C9.99414062,8.81835938 9.73730469,8.84960938 9.47753906,8.91210938 C9.21777344,8.97460938 8.95507812,9.06835938 8.68945312,9.19335938 L8.68945312,9.19335938 L8.89453125,7.90429688 L12.7324219,7.90429688 L12.7324219,6 L7.06640625,6 L6.31054688,10.6171875 L8.34375,10.9101562 C8.53515625,10.6953125 8.7109375,10.546875 8.87109375,10.4648438 C9.0859375,10.3515625 9.30859375,10.2949219 9.5390625,10.2949219 C9.90234375,10.2949219 10.1933594,10.4140625 10.4121094,10.6523438 C10.6308594,10.890625 10.7402344,11.265625 10.7402344,11.7773438 C10.7402344,12.2773438 10.6318359,12.6533203 10.4150391,12.9052734 C10.1982422,13.1572266 9.92382812,13.2832031 9.59179688,13.2832031 C9.29492188,13.2832031 9.0390625,13.1826172 8.82421875,12.9814453 C8.609375,12.7802734 8.47265625,12.4863281 8.4140625,12.0996094 L8.4140625,12.0996094 L6,12.3632812 C6.1171875,12.765625 6.26367188,13.1015625 6.43945312,13.3710938 C6.61523438,13.640625 6.84472656,13.8818359 7.12792969,14.0947266 C7.41113281,14.3076172 7.75488281,14.4677734 8.15917969,14.5751953 C8.56347656,14.6826172 9.04882812,14.7363281 9.61523438,14.7363281 Z" id="5" fill="#FFFFFF"></path>
        </g>
    </g>
</svg>