<?xml version="1.0" encoding="UTF-8"?>
<svg width="24px" height="28px" viewBox="0 0 24 28" version="1.1" xmlns="http://www.w3.org/2000/svg" xmlns:xlink="http://www.w3.org/1999/xlink">
    <!-- Generator: Sketch 64 (93537) - https://sketch.com -->
    <title>shard-2</title>
    <desc>Created with Sketch.</desc>
    <g id="Page-1" stroke="none" stroke-width="1" fill="none" fill-rule="evenodd">
        <g id="shard-2" transform="translate(2.000000, 2.000000)" fill-rule="nonzero">
            <path d="M10.0024702,-0.75 C7.1293203,-0.75 4.42758413,0.383027375 2.39602651,2.44200351 C0.36779234,4.49714395 -0.75,7.22878791 -0.75,10.1351616 C-0.75,13.0415267 0.367800776,15.7736231 2.3960864,17.8288157 L8.67904509,24.1951232 C9.04372741,24.5653727 9.52365483,24.75 10.0024702,24.75 C10.4812856,24.75 10.961213,24.5653727 11.3264141,24.1945971 L17.608854,17.8288157 C19.7021709,15.7077292 20.75,12.9218525 20.75,10.1353793 C20.75,7.34890604 19.7021709,4.56302934 17.608854,2.44194282 C15.5768504,0.382982893 12.875588,-0.75 10.0024702,-0.75 Z" id="Path-Copy" stroke="#333333" stroke-width="1.5" fill="#1B46C2"></path>
            <path d="M13.1601562,14.7363281 L13.1601562,12.7910156 L9.43359375,12.7910156 C9.65234375,12.5761719 9.84277344,12.4023438 10.0048828,12.2695312 C10.1669922,12.1367188 10.4882812,11.9042969 10.96875,11.5722656 C11.7773438,11.0019531 12.3349609,10.4785156 12.6416016,10.0019531 C12.9482422,9.52539062 13.1015625,9.02539062 13.1015625,8.50195312 C13.1015625,8.00976562 12.9677734,7.56542969 12.7001953,7.16894531 C12.4326172,6.77246094 12.0654297,6.47851562 11.5986328,6.28710938 C11.1318359,6.09570312 10.4785156,6 9.63867188,6 C8.83398438,6 8.20410156,6.10058594 7.74902344,6.30175781 C7.29394531,6.50292969 6.94140625,6.79199219 6.69140625,7.16894531 C6.44140625,7.54589844 6.26953125,8.0703125 6.17578125,8.7421875 L6.17578125,8.7421875 L8.56640625,8.93554688 C8.6328125,8.45117188 8.76269531,8.11328125 8.95605469,7.921875 C9.14941406,7.73046875 9.3984375,7.63476562 9.703125,7.63476562 C9.99609375,7.63476562 10.2392578,7.72753906 10.4326172,7.91308594 C10.6259766,8.09863281 10.7226562,8.32226562 10.7226562,8.58398438 C10.7226562,8.82617188 10.625,9.08203125 10.4296875,9.3515625 C10.234375,9.62109375 9.78710938,10.015625 9.08789062,10.5351562 C7.94335938,11.3828125 7.16308594,12.1181641 6.74707031,12.7412109 C6.33105469,13.3642578 6.08203125,14.0292969 6,14.7363281 L6,14.7363281 L13.1601562,14.7363281 Z" id="2" fill="#FFFFFF"></path>
        </g>
    </g>
</svg>