<?xml version="1.0" encoding="UTF-8"?>
<svg width="24px" height="28px" viewBox="0 0 24 28" version="1.1" xmlns="http://www.w3.org/2000/svg" xmlns:xlink="http://www.w3.org/1999/xlink">
    <!-- Generator: Sketch 64 (93537) - https://sketch.com -->
    <title>metachain</title>
    <desc>Created with Sketch.</desc>
    <g id="Page-1" stroke="none" stroke-width="1" fill="none" fill-rule="evenodd">
        <g id="metachain" transform="translate(2.000000, 2.000000)" fill-rule="nonzero">
            <path d="M10.0024702,-0.75 C7.1293203,-0.75 4.42758413,0.383027375 2.39602651,2.44200351 C0.36779234,4.49714395 -0.75,7.22878791 -0.75,10.1351616 C-0.75,13.0415267 0.367800776,15.7736231 2.3960864,17.8288157 L8.67904509,24.1951232 C9.04372741,24.5653727 9.52365483,24.75 10.0024702,24.75 C10.4812856,24.75 10.961213,24.5653727 11.3264141,24.1945971 L17.608854,17.8288157 C19.7021709,15.7077292 20.75,12.9218525 20.75,10.1353793 C20.75,7.34890604 19.7021709,4.56302934 17.608854,2.44194282 C15.5768504,0.382982893 12.875588,-0.75 10.0024702,-0.75 Z" id="Path-Copy-6" stroke="#242424" stroke-width="1.5" fill="#1B46C2"></path>
            <path d="M10.9765625,14.5898438 L13.0859375,13.0078125 L11.8671875,11.6835938 C11.609375,11.4023438 11.2617188,11.0898438 10.8242188,10.7460938 C11.4726562,10.7226562 11.9609375,10.6796875 12.2890625,10.6171875 L12.2890625,10.6171875 L14.09375,10.2421875 L13.2851562,7.76953125 L11.65625,8.54296875 C11.484375,8.62109375 11.234375,8.75 10.90625,8.9296875 C10.8125,8.984375 10.6171875,9.0859375 10.3203125,9.234375 C10.46875,8.6875 10.5664062,8.19921875 10.6132812,7.76953125 L10.6132812,7.76953125 L10.8242188,6 L8.234375,6 L8.46875,7.76953125 C8.5078125,8.08984375 8.6015625,8.578125 8.75,9.234375 C8.0703125,8.828125 7.64453125,8.5859375 7.47265625,8.5078125 L7.47265625,8.5078125 L5.84375,7.76953125 L5,10.2421875 L6.81640625,10.5351562 C7.40234375,10.6445312 7.875,10.7148438 8.234375,10.7460938 C7.8828125,11.0039062 7.5234375,11.3164062 7.15625,11.6835938 L7.15625,11.6835938 L5.84375,13.0078125 L8.01171875,14.5898438 L8.890625,13.0078125 C8.9921875,12.84375 9.1953125,12.4023438 9.5,11.6835938 C9.78125,12.3398438 9.984375,12.78125 10.109375,13.0078125 L10.109375,13.0078125 L10.9765625,14.5898438 Z" id="*" fill="#FFFFFF"></path>
        </g>
    </g>
</svg>