<?xml version="1.0" encoding="UTF-8"?>
<svg width="24px" height="28px" viewBox="0 0 24 28" version="1.1" xmlns="http://www.w3.org/2000/svg" xmlns:xlink="http://www.w3.org/1999/xlink">
    <!-- Generator: Sketch 64 (93537) - https://sketch.com -->
    <title>shard-4</title>
    <desc>Created with Sketch.</desc>
    <g id="Page-1" stroke="none" stroke-width="1" fill="none" fill-rule="evenodd">
        <g id="shard-4" transform="translate(2.000000, 2.000000)" fill-rule="nonzero">
            <path d="M10.0024702,-0.75 C7.1293203,-0.75 4.42758413,0.383027375 2.39602651,2.44200351 C0.36779234,4.49714395 -0.75,7.22878791 -0.75,10.1351616 C-0.75,13.0415267 0.367800776,15.7736231 2.3960864,17.8288157 L8.67904509,24.1951232 C9.04372741,24.5653727 9.52365483,24.75 10.0024702,24.75 C10.4812856,24.75 10.961213,24.5653727 11.3264141,24.1945971 L17.608854,17.8288157 C19.7021709,15.7077292 20.75,12.9218525 20.75,10.1353793 C20.75,7.34890604 19.7021709,4.56302934 17.608854,2.44194282 C15.5768504,0.382982893 12.875588,-0.75 10.0024702,-0.75 Z" id="Path-Copy-4" stroke="#333333" stroke-width="1.5" fill="#1B46C2"></path>
            <path d="M12.4277344,14.7363281 L12.4277344,13.1308594 L13.5058594,13.1308594 L13.5058594,11.2792969 L12.4277344,11.2792969 L12.4277344,6 L10.3476562,6 L6,11.1679688 L6,13.1308594 L10.3476562,13.1308594 L10.3476562,14.7363281 L12.4277344,14.7363281 Z M10.3476562,11.2792969 L8.05078125,11.2792969 L10.3476562,8.578125 L10.3476562,11.2792969 Z" id="4" fill="#FFFFFF"></path>
        </g>
    </g>
</svg>