<?xml version="1.0" encoding="UTF-8"?>
<svg width="24px" height="28px" viewBox="0 0 24 28" version="1.1" xmlns="http://www.w3.org/2000/svg" xmlns:xlink="http://www.w3.org/1999/xlink">
    <!-- Generator: Sketch 64 (93537) - https://sketch.com -->
    <title>shard-6</title>
    <desc>Created with Sketch.</desc>
    <g id="Page-1" stroke="none" stroke-width="1" fill="none" fill-rule="evenodd">
        <g id="shard-6" transform="translate(2.000000, 2.000000)" fill-rule="nonzero">
            <path d="M10.0024702,-0.75 C7.1293203,-0.75 4.42758413,0.383027375 2.39602651,2.44200351 C0.36779234,4.49714395 -0.75,7.22878791 -0.75,10.1351616 C-0.75,13.0415267 0.367800776,15.7736231 2.3960864,17.8288157 L8.67904509,24.1951232 C9.04372741,24.5653727 9.52365483,24.75 10.0024702,24.75 C10.4812856,24.75 10.961213,24.5653727 11.3264141,24.1945971 L17.608854,17.8288157 C19.7021709,15.7077292 20.75,12.9218525 20.75,10.1353793 C20.75,7.34890604 19.7021709,4.56302934 17.608854,2.44194282 C15.5768504,0.382982893 12.875588,-0.75 10.0024702,-0.75 Z" id="Path-Copy-7" stroke="#242424" stroke-width="1.5" fill="#1B46C2"></path>
            <path d="M10.78125,15.1464844 C11.4960938,15.1464844 12.0908203,15.0263672 12.5654297,14.7861328 C13.0400391,14.5458984 13.4111328,14.1914062 13.6787109,13.7226562 C13.9462891,13.2539062 14.0800781,12.7363281 14.0800781,12.1699219 C14.0800781,11.3300781 13.8154297,10.6367188 13.2861328,10.0898438 C12.7568359,9.54296875 12.109375,9.26953125 11.34375,9.26953125 C10.9492188,9.26953125 10.6015625,9.33886719 10.3007812,9.47753906 C10,9.61621094 9.70703125,9.83007812 9.421875,10.1191406 C9.49609375,9.19726562 9.61132812,8.59570312 9.76757812,8.31445312 C9.98242188,7.92382812 10.2832031,7.72851562 10.6699219,7.72851562 C10.8847656,7.72851562 11.0654297,7.796875 11.2119141,7.93359375 C11.3583984,8.0703125 11.4628906,8.3046875 11.5253906,8.63671875 L11.5253906,8.63671875 L13.8984375,8.34375 C13.7617188,7.8828125 13.5625,7.5 13.3007812,7.1953125 C13.0390625,6.890625 12.7099609,6.65917969 12.3134766,6.50097656 C11.9169922,6.34277344 11.3769531,6.26367188 10.6933594,6.26367188 C9.53710938,6.26367188 8.6328125,6.62402344 7.98046875,7.34472656 C7.328125,8.06542969 7.00195312,9.20117188 7.00195312,10.7519531 C7.00195312,11.8105469 7.15722656,12.6611328 7.46777344,13.3037109 C7.77832031,13.9462891 8.19335938,14.4140625 8.71289062,14.7070312 C9.23242188,15 9.921875,15.1464844 10.78125,15.1464844 Z M10.7167969,13.6582031 C10.3769531,13.6582031 10.0898438,13.5263672 9.85546875,13.2626953 C9.62109375,12.9990234 9.50390625,12.6347656 9.50390625,12.1699219 C9.50390625,11.7128906 9.61621094,11.3613281 9.84082031,11.1152344 C10.0654297,10.8691406 10.34375,10.7460938 10.6757812,10.7460938 C11,10.7460938 11.2714844,10.8730469 11.4902344,11.1269531 C11.7089844,11.3808594 11.8183594,11.75 11.8183594,12.234375 C11.8183594,12.7070312 11.7128906,13.0625 11.5019531,13.3007812 C11.2910156,13.5390625 11.0292969,13.6582031 10.7167969,13.6582031 Z" id="6" fill="#FFFFFF"></path>
        </g>
    </g>
</svg>