<?xml version="1.0" encoding="UTF-8"?>
<svg width="18px" height="19px" viewBox="0 0 18 19" version="1.1" xmlns="http://www.w3.org/2000/svg" xmlns:xlink="http://www.w3.org/1999/xlink">
    <title>logo-facebook</title>
    <g id="Page-1" stroke="none" stroke-width="1" fill-rule="evenodd">
        <g id="Landing-3-Copy-4" transform="translate(-288.000000, -11342.000000)" fill-rule="nonzero">
            <g id="Footer" transform="translate(0.000000, 11028.000000)">
                <g transform="translate(1.000000, 1.605009)" id="logo-facebook">
                    <g transform="translate(287.000000, 313.000000)">
                        <path d="M17.25,0 L0.75,0 C0.33578625,0 0,0.33578625 0,0.75 L0,17.25 C0,17.6642138 0.33578625,18 0.75,18 L9.61435875,18 L9.61435875,11.0294625 L7.268625,11.0294625 L7.268625,8.31289875 L9.61435875,8.31289875 L9.61435875,6.3095175 C9.61435875,3.98460375 11.0343375,2.718645 13.10832,2.718645 C14.1017775,2.718645 14.9556037,2.79261 15.2044312,2.82567 L15.2044312,5.25534 L13.7660175,5.2559925 C12.63807,5.2559925 12.41967,5.79197625 12.41967,6.5784975 L12.41967,8.31289875 L15.1097212,8.31289875 L14.7594675,11.0294625 L12.41967,11.0294625 L12.41967,18 L17.25,18 C17.6642137,18 18,17.6642138 18,17.25 L18,0.75 C18,0.33578625 17.6642137,0 17.25,0 Z" id="Path"></path>
                    </g>
                </g>
            </g>
        </g>
    </g>
</svg>