<?xml version="1.0" encoding="UTF-8"?>
<svg width="18px" height="19px" viewBox="0 0 18 19" version="1.1" xmlns="http://www.w3.org/2000/svg" xmlns:xlink="http://www.w3.org/1999/xlink">
    <title>logo-instagram</title>
    <g id="Page-1" stroke="none" stroke-width="1" fill="none" fill-rule="evenodd">
        <g id="Landing-3-Copy-4" transform="translate(-329.000000, -11342.000000)" fill-rule="nonzero">
            <g id="Footer" transform="translate(0.000000, 11028.000000)">
                <g transform="translate(1.000000, 1.605009)" id="logo-instagram">
                    <g transform="translate(328.000000, 313.000000)" id="Group-14">
                        <path d="M9,1.6215 C11.403,1.6215 11.687625,1.6305 12.63675,1.674 C13.660875,1.720875 14.6115,1.926 15.34275,2.65725 C16.074,3.3885 16.279125,4.339125 16.326,5.36325 C16.369125,6.312375 16.3785,6.597 16.3785,9 C16.3785,11.403 16.3695,11.687625 16.326,12.63675 C16.279125,13.660875 16.074,14.6115 15.34275,15.34275 C14.6115,16.074 13.660875,16.279125 12.63675,16.326 C11.688,16.369125 11.403375,16.3785 9,16.3785 C6.596625,16.3785 6.312,16.3695 5.36325,16.326 C4.339125,16.279125 3.3885,16.074 2.65725,15.34275 C1.926,14.6115 1.720875,13.660875 1.674,12.63675 C1.630875,11.687625 1.6215,11.403 1.6215,9 C1.6215,6.597 1.6305,6.312375 1.674,5.36325 C1.720875,4.339125 1.926,3.3885 2.65725,2.65725 C3.3885,1.926 4.339125,1.720875 5.36325,1.674 C6.312375,1.630875 6.597,1.6215 9,1.6215 M9,0 C6.55575,0 6.249375,0.0105 5.289375,0.054 C3.826875,0.12075 2.542125,0.478875 1.5105,1.5105 C0.47925,2.54175 0.12075,3.826125 0.054,5.289375 C0.0105,6.249375 0,6.55575 0,9 C0,11.44425 0.0105,11.750625 0.054,12.710625 C0.12075,14.173125 0.478875,15.457875 1.5105,16.4895 C2.54175,17.52075 3.826125,17.87925 5.289375,17.946 C6.249375,17.9895 6.55575,18 9,18 C11.44425,18 11.750625,17.9895 12.710625,17.946 C14.17275,17.87925 15.457875,17.521125 16.4895,16.4895 C17.52075,15.45825 17.87925,14.173875 17.946,12.710625 C17.9895,11.750625 18,11.44425 18,9 C18,6.55575 17.9895,6.249375 17.946,5.289375 C17.87925,3.826875 17.521125,2.542125 16.4895,1.5105 C15.45825,0.47925 14.173875,0.12075 12.710625,0.054 C11.750625,0.0105 11.44425,0 9,0 L9,0 Z" id="Shape"></path>
                        <path d="M9.40909091,4.90909091 C6.92357484,4.90909091 4.90909091,6.92393998 4.90909091,9.40909091 C4.90909091,11.8942418 6.92357484,13.9090909 9.40909091,13.9090909 C11.894607,13.9090909 13.9090909,11.894607 13.9090909,9.40909091 C13.9090909,6.92357484 11.894607,4.90909091 9.40909091,4.90909091 Z M9.40909091,12.3302204 C7.79589714,12.3302204 6.48796141,11.0222847 6.48796141,9.40909091 C6.48796141,7.79589714 7.79589714,6.48796141 9.40909091,6.48796141 C11.0222847,6.48796141 12.3302204,7.79589714 12.3302204,9.40909091 C12.3302204,11.0222847 11.0222847,12.3302204 9.40909091,12.3302204 Z" id="Shape"></path>
                        <circle id="Oval" cx="13.5" cy="4.5" r="1.22727273"></circle>
                    </g>
                </g>
            </g>
        </g>
    </g>
</svg>