<?xml version="1.0" encoding="UTF-8"?>
<svg width="16px" height="18px" viewBox="0 0 16 18" version="1.1" xmlns="http://www.w3.org/2000/svg" xmlns:xlink="http://www.w3.org/1999/xlink">
    <title>Tiktok</title>
    <g id="Contact-us" stroke="none" stroke-width="1" fill="none" fill-rule="evenodd">
        <g id="Maiar-website---Contact-us" transform="translate(-415.000000, -1564.000000)" fill-rule="nonzero">
            <g id="Footer" transform="translate(0.000000, 1214.000000)">
                <g transform="translate(0.000000, 1.605009)" id="0">
                    <g transform="translate(249.000000, 246.394991)">
                        <g id="Social" transform="translate(0.000000, 102.000000)">
                            <g id="iconfinder_Tiktok_7266659" transform="translate(166.000000, 0.000000)">
                                <path d="M8.28445055,0.0351098901 L11.3503846,0.0351098901 C11.3503846,0.0351098901 11.1802747,3.97384615 15.6085714,4.25027473 L15.6085714,7.29494505 C15.6085714,7.29494505 13.2453297,7.4432967 11.3503846,5.99637363 L11.3835165,12.2825275 C11.3835165,15.4207453 8.83953652,17.9648901 5.70131867,17.9648901 C2.56310082,17.9648901 0.0189732826,15.421075 0.0187912184,12.2828571 C0.0186091542,9.14463927 2.5624415,6.60043794 5.70065934,6.60016484 L6.4978022,6.60016484 L6.4978022,9.6482967 L6.4978022,9.71307692 C5.43212197,9.38079967 4.27356133,9.77061257 3.6254887,10.6795044 C2.97741606,11.5883962 2.98644769,12.8107445 3.64788,13.7099607 C4.3093123,14.609177 5.4735066,14.9818276 6.53416051,14.6338394 C7.59481442,14.2858512 8.31197164,13.295951 8.31214286,12.1796703 L8.28445055,0.0351098901 Z" id="Path"></path>
                            </g>
                        </g>
                    </g>
                </g>
            </g>
        </g>
    </g>
</svg>