<svg xmlns="http://www.w3.org/2000/svg" xmlns:xlink="http://www.w3.org/1999/xlink" width="218.669" height="219.098" viewBox="0 0 218.669 219.098"><defs><filter id="center-gear-a" x="24.305" y="24.5" width="169.627" height="170.084" filterUnits="userSpaceOnUse"><feOffset input="SourceAlpha"/><feGaussianBlur stdDeviation="5" result="b"/><feFlood flood-color="#d5dce6" flood-opacity="0.702"/><feComposite operator="in" in2="b"/><feComposite in="SourceGraphic"/></filter><filter id="center-gear-c" x="28.281" y="28.704" width="161.676" height="161.676" filterUnits="userSpaceOnUse"><feOffset input="SourceAlpha"/><feGaussianBlur stdDeviation="5" result="d"/><feFlood flood-color="#d5dce6" flood-opacity="0.702"/><feComposite operator="in" in2="d"/><feComposite in="SourceGraphic"/></filter><filter id="center-gear-e" x="0" y="0" width="218.669" height="219.098" filterUnits="userSpaceOnUse"><feOffset input="SourceAlpha"/><feGaussianBlur stdDeviation="5" result="f"/><feFlood flood-color="#d5dce6" flood-opacity="0.702"/><feComposite operator="in" in2="f"/><feComposite in="SourceGraphic"/></filter></defs><g transform="translate(8.523 8.5)"><g transform="matrix(1, 0, 0, 1, -8.52, -8.5)" filter="url(#center-gear-a)"><ellipse cx="69.814" cy="70.042" rx="69.814" ry="70.042" transform="translate(39.31 39.5)" fill="#fff"/></g><g transform="matrix(1, 0, 0, 1, -8.52, -8.5)" filter="url(#center-gear-c)"><ellipse cx="65.588" cy="65.588" rx="65.588" ry="65.588" transform="translate(43.53 43.95)" fill="none" stroke="#818ea3" stroke-miterlimit="10" stroke-width="0.5"/></g><g transform="matrix(1, 0, 0, 1, -8.52, -8.5)" filter="url(#center-gear-e)"><path d="M93.246,188.083h-.067L90.256,188a22.542,22.542,0,0,1-2.159-9c-2.489-.156-4.959-.419-7.337-.776a22.443,22.443,0,0,1-4.07,8.263l-2.868-.566-.066-.013-.065-.013-2.842-.688a22.454,22.454,0,0,1-.256-9.159c-2.353-.656-4.722-1.431-7.04-2.3a22.34,22.34,0,0,1-5.659,7.161L55.2,179.766l-.061-.026-.061-.026-2.637-1.264a22.534,22.534,0,0,1,1.624-8.941c-2.213-1.158-4.377-2.413-6.43-3.726a22.151,22.151,0,0,1-6.974,5.766l-2.39-1.684-.056-.038-.055-.038L35.849,168a22.349,22.349,0,0,1,3.4-8.339c-1.882-1.557-3.744-3.241-5.533-5a22.441,22.441,0,0,1-7.958,4.142l-1.989-2.143-.045-.05-.045-.049-1.895-2.227a22.465,22.465,0,0,1,5-7.385c-1.53-1.923-3-3.947-4.371-6.015a22.339,22.339,0,0,1-8.559,2.412l-1.515-2.5-.034-.058-.034-.056-1.406-2.565a22.325,22.325,0,0,1,6.358-6.206c-1.132-2.268-2.161-4.571-3.055-6.845a24.1,24.1,0,0,1-6.039.78,16.9,16.9,0,0,1-2.812-.206H5.31l-.96-2.762-.022-.063-.022-.064L3.463,120a22.3,22.3,0,0,1,7.5-4.746c-.607-2.354-1.127-4.822-1.545-7.333-.367.016-.736.025-1.1.025a21.791,21.791,0,0,1-7.7-1.306l-.366-2.9-.009-.067L.243,103.6,0,100.688A22.4,22.4,0,0,1,8.349,97.6c-.058-1.353-.086-2.578-.086-3.744s.028-2.387.086-3.746A22.227,22.227,0,0,1,0,87.028l.245-2.914.005-.067.006-.067.368-2.9a22.048,22.048,0,0,1,7.7-1.305c.372,0,.742.009,1.1.025.419-2.512.939-4.98,1.545-7.334a22.017,22.017,0,0,1-7.5-4.746l.845-2.8.02-.064.02-.064L5.31,62.03a16.591,16.591,0,0,1,2.82-.208,24.022,24.022,0,0,1,6.036.781c.9-2.278,1.924-4.581,3.055-6.845a22.12,22.12,0,0,1-6.358-6.207l1.409-2.563.032-.059.032-.058,1.516-2.5a22.258,22.258,0,0,1,8.559,2.412c1.378-2.079,2.86-4.118,4.4-6.057a22.393,22.393,0,0,1-4.94-7.4l1.91-2.214.044-.05.044-.05,2-2.131a22.374,22.374,0,0,1,7.878,4.146c1.8-1.771,3.669-3.459,5.557-5.017a22.363,22.363,0,0,1-3.292-8.267l2.329-1.769.053-.04.053-.04,2.4-1.667A22.286,22.286,0,0,1,47.692,21.9c2.074-1.327,4.256-2.588,6.485-3.75a22.453,22.453,0,0,1-1.5-8.762l2.646-1.245.061-.029.06-.028,2.7-1.131a22.489,22.489,0,0,1,5.5,6.972c2.339-.876,4.737-1.655,7.126-2.314a22.353,22.353,0,0,1,.355-8.879l2.846-.668.064-.015.066-.015,2.871-.546a22.24,22.24,0,0,1,3.936,7.974c2.436-.362,4.942-.621,7.447-.771A22.5,22.5,0,0,1,90.545.064L93.468,0h.067L93.6,0l2.923.064a22.332,22.332,0,0,1,2.193,8.63,85.774,85.774,0,0,1,8.887,1,22.418,22.418,0,0,1,4.049-8.006l2.866.58.065.014.066.013,2.838.7a22.363,22.363,0,0,1,.228,9.02c2.409.712,4.778,1.524,7.039,2.415a22.374,22.374,0,0,1,5.665-7.063l2.68,1.165,0,0,.059.03.062.026,2.63,1.278a22.609,22.609,0,0,1-1.684,8.958c2.137,1.162,4.273,2.448,6.347,3.823a22.49,22.49,0,0,1,7.079-5.815l2.381,1.7.055.038.054.038,2.307,1.8a22.43,22.43,0,0,1-3.567,8.5c1.871,1.6,3.69,3.288,5.4,5.027a22.18,22.18,0,0,1,8.2-4.268l1.976,2.155.045.05.045.049,1.882,2.237a22.629,22.629,0,0,1-5.3,7.619c1.518,1.968,2.946,3.993,4.246,6.016A22.536,22.536,0,0,1,174.27,45.3l1.486,2.519.033.057.034.058,1.376,2.581a22.435,22.435,0,0,1-6.8,6.365c1.041,2.165,2.015,4.439,2.893,6.76a24.124,24.124,0,0,1,6.227-.827,16.736,16.736,0,0,1,3.083.243l.929,2.774.021.063.021.063.811,2.811a22.642,22.642,0,0,1-8.009,4.827c.589,2.418,1.07,4.841,1.432,7.2.432-.023.868-.034,1.294-.034a21.746,21.746,0,0,1,7.965,1.4l.332,2.906.009.067.007.066.208,2.918a22.468,22.468,0,0,1-8.867,3.06c.031,1.006.045,1.861.045,2.686,0,1.529-.043,3.093-.126,4.647a22.5,22.5,0,0,1,8.79,3.264l-.279,2.911-.007.067-.006.065-.4,2.9a21.988,21.988,0,0,1-7.427,1.22c-.613,0-1.237-.024-1.856-.07-.421,2.375-.959,4.787-1.6,7.167a22.418,22.418,0,0,1,7.889,5.01l-.877,2.79-.02.064-.021.063-1,2.751h-.005a16.225,16.225,0,0,1-2.566.176,24.281,24.281,0,0,1-6.717-.976c-.929,2.292-1.949,4.529-3.031,6.65a22.25,22.25,0,0,1,6.663,6.47l-1.423,2.554-.032.059-.032.058-1.532,2.492a22.527,22.527,0,0,1-8.926-2.659c-1.344,1.991-2.816,3.978-4.373,5.907a22.376,22.376,0,0,1,5.21,7.754l-1.923,2.2-.045.05-.044.05-2.015,2.12a22.328,22.328,0,0,1-8.208-4.482c-1.761,1.708-3.605,3.35-5.483,4.881a22.439,22.439,0,0,1,3.493,8.679l-2.34,1.755-.053.04-.055.04-2.412,1.653a22.538,22.538,0,0,1-7.092-6.084c-2.09,1.317-4.235,2.545-6.374,3.648a22.145,22.145,0,0,1,1.6,9.195l-2.652,1.229-.061.028-.061.028-2.7,1.115a22.486,22.486,0,0,1-5.659-7.4c-2.25.831-4.606,1.584-7,2.238a22.236,22.236,0,0,1-.345,9.3l-2.851.65-.065.015-.065.014-2.875.53a22.4,22.4,0,0,1-3.992-8.394c-2.417.349-4.881.6-7.323.738a22.22,22.22,0,0,1-2.269,9l-2.923.044h0v0ZM53.268,25.167A79.8,79.8,0,1,0,93.553,14.2,79.867,79.867,0,0,0,53.268,25.167Z" transform="translate(15.52 15.5)" fill="#fff" stroke="#818ea3" stroke-miterlimit="10" stroke-width="1"/></g><path d="M0,70.073" transform="translate(170.669 30.669) rotate(90)" fill="none" stroke="#1f43f6" stroke-linecap="round" stroke-width="3"/></g></svg>