<svg
	xmlns="http://www.w3.org/2000/svg"
	xmlns:xlink="http://www.w3.org/1999/xlink" width="189" height="189" viewBox="0 0 189 189">
	<defs>
		<clipPath id="center-gear-h">
			<rect width="189" height="189"/>
		</clipPath>
	</defs>
	<g id="g" clip-path="url(#center-gear-h)">
		<g transform="translate(-457.5 261.139)">
			<g transform="translate(457.96 -260.681)">
				<g transform="matrix(1, 0, 0, 1, -0.46, -0.46)">
					<circle cx="70" cy="70" r="70" transform="translate(24.24 24.46)" fill="#fff"/>
				</g>
				<g transform="matrix(1, 0, 0, 1, -0.46, -0.46)">
					<ellipse cx="65.814" cy="65.815" rx="65.814" ry="65.815" transform="translate(28.47 28.91)" fill="none" stroke="#818ea3" stroke-miterlimit="10" stroke-width="0.5"/>
				</g>
				<g transform="matrix(1, 0, 0, 1, -0.46, -0.46)">
					<path d="M93.471,188.083H93.4L90.473,188a22.5,22.5,0,0,1-2.164-9c-2.5-.156-4.971-.419-7.355-.776a22.425,22.425,0,0,1-4.08,8.263L74,185.927l-.066-.013-.065-.013-2.849-.688a22.4,22.4,0,0,1-.257-9.159c-2.358-.656-4.733-1.431-7.057-2.3a22.353,22.353,0,0,1-5.672,7.161l-2.695-1.149-.062-.026-.061-.026-2.644-1.264a22.484,22.484,0,0,1,1.628-8.941c-2.219-1.158-4.388-2.413-6.446-3.726a22.2,22.2,0,0,1-6.99,5.766l-2.4-1.684-.056-.038-.055-.038L35.936,168a22.316,22.316,0,0,1,3.411-8.339c-1.887-1.557-3.753-3.241-5.547-5a22.517,22.517,0,0,1-7.977,4.142L23.83,156.66l-.045-.05-.045-.049-1.9-2.227a22.459,22.459,0,0,1,5.008-7.385c-1.534-1.923-3.007-3.947-4.382-6.015a22.436,22.436,0,0,1-8.58,2.412l-1.518-2.5-.034-.058-.034-.056-1.41-2.565a22.349,22.349,0,0,1,6.374-6.206c-1.135-2.268-2.166-4.571-3.062-6.845a24.208,24.208,0,0,1-6.054.78,16.982,16.982,0,0,1-2.819-.206H5.323l-.963-2.762-.022-.063-.022-.064L3.472,120a22.358,22.358,0,0,1,7.521-4.746c-.609-2.354-1.13-4.822-1.549-7.333-.368.016-.738.025-1.1.025a21.89,21.89,0,0,1-7.717-1.306l-.367-2.9-.009-.067L.243,103.6,0,100.688A22.483,22.483,0,0,1,8.369,97.6c-.058-1.353-.087-2.578-.087-3.744s.028-2.387.087-3.746A22.311,22.311,0,0,1,0,87.028l.246-2.914.005-.067.006-.067.369-2.9a22.148,22.148,0,0,1,7.718-1.305c.373,0,.743.009,1.1.025.42-2.512.941-4.98,1.549-7.334a22.073,22.073,0,0,1-7.521-4.746l.847-2.8.02-.064.02-.064.965-2.761a16.67,16.67,0,0,1,2.827-.208A24.135,24.135,0,0,1,14.2,62.6c.9-2.278,1.928-4.581,3.062-6.845a22.145,22.145,0,0,1-6.374-6.207L12.3,46.988l.032-.059.033-.058,1.52-2.5a22.355,22.355,0,0,1,8.58,2.412c1.381-2.079,2.867-4.118,4.415-6.057a22.385,22.385,0,0,1-4.952-7.4l1.915-2.214.044-.05.044-.05,2.008-2.131a22.45,22.45,0,0,1,7.9,4.146c1.8-1.771,3.678-3.459,5.571-5.017a22.329,22.329,0,0,1-3.3-8.267l2.334-1.769.053-.04.053-.04,2.408-1.667A22.332,22.332,0,0,1,47.807,21.9c2.079-1.327,4.266-2.588,6.5-3.75a22.4,22.4,0,0,1-1.5-8.762l2.652-1.245.061-.029.06-.028,2.7-1.131a22.5,22.5,0,0,1,5.514,6.972c2.345-.876,4.748-1.655,7.143-2.314a22.3,22.3,0,0,1,.356-8.879l2.853-.668.064-.015.066-.015,2.878-.546A22.223,22.223,0,0,1,81.1,9.465c2.442-.362,4.954-.621,7.465-.771a22.454,22.454,0,0,1,2.2-8.63L93.693,0h.068l.066,0,2.93.064a22.291,22.291,0,0,1,2.2,8.63,86.181,86.181,0,0,1,8.909,1,22.4,22.4,0,0,1,4.059-8.006l2.873.58.065.014.066.013,2.845.7a22.311,22.311,0,0,1,.229,9.02c2.415.712,4.79,1.524,7.056,2.415a22.389,22.389,0,0,1,5.678-7.063l2.686,1.165,0,0,.059.03.062.026,2.636,1.278a22.56,22.56,0,0,1-1.688,8.958c2.143,1.162,4.283,2.448,6.362,3.823a22.538,22.538,0,0,1,7.1-5.815l2.387,1.7.055.038.054.038,2.312,1.8a22.4,22.4,0,0,1-3.575,8.5c1.875,1.6,3.7,3.288,5.417,5.027a22.256,22.256,0,0,1,8.219-4.268l1.981,2.155.045.05.045.049,1.887,2.237a22.624,22.624,0,0,1-5.315,7.619c1.522,1.968,2.954,3.993,4.256,6.016a22.635,22.635,0,0,1,8.973-2.491l1.489,2.519.033.057.034.058,1.38,2.581a22.463,22.463,0,0,1-6.813,6.365c1.044,2.165,2.02,4.439,2.9,6.76a24.237,24.237,0,0,1,6.242-.827,16.816,16.816,0,0,1,3.091.243l.932,2.774.021.063.021.063.813,2.811a22.7,22.7,0,0,1-8.028,4.827c.59,2.418,1.073,4.841,1.435,7.2.433-.023.87-.034,1.3-.034a21.844,21.844,0,0,1,7.985,1.4l.333,2.906.009.067.007.066.209,2.918a22.556,22.556,0,0,1-8.888,3.06c.031,1.006.045,1.861.045,2.686,0,1.529-.043,3.093-.127,4.647a22.586,22.586,0,0,1,8.811,3.264l-.279,2.911-.007.067-.006.065-.4,2.9a22.088,22.088,0,0,1-7.445,1.22c-.614,0-1.24-.024-1.861-.07-.422,2.375-.962,4.787-1.6,7.167a22.475,22.475,0,0,1,7.908,5.01l-.879,2.79-.02.064-.021.063-1,2.751H182.3a16.3,16.3,0,0,1-2.572.176,24.394,24.394,0,0,1-6.733-.976c-.932,2.292-1.954,4.529-3.038,6.65a22.275,22.275,0,0,1,6.679,6.47l-1.427,2.554-.033.059-.033.058-1.535,2.492a22.624,22.624,0,0,1-8.948-2.659c-1.347,1.991-2.823,3.978-4.384,5.907a22.368,22.368,0,0,1,5.223,7.754l-1.928,2.2-.045.05-.044.05-2.02,2.12a22.4,22.4,0,0,1-8.228-4.482c-1.765,1.708-3.614,3.35-5.5,4.881a22.406,22.406,0,0,1,3.5,8.679l-2.346,1.755-.053.04-.055.04-2.417,1.653a22.582,22.582,0,0,1-7.109-6.084c-2.095,1.317-4.245,2.545-6.389,3.648a22.1,22.1,0,0,1,1.608,9.195l-2.658,1.229-.061.028-.061.028-2.709,1.115a22.5,22.5,0,0,1-5.672-7.4c-2.256.831-4.617,1.584-7.02,2.238a22.184,22.184,0,0,1-.346,9.3l-2.858.65-.065.015-.065.014-2.882.53a22.375,22.375,0,0,1-4-8.394c-2.423.349-4.893.6-7.341.738a22.179,22.179,0,0,1-2.274,9l-2.93.044h0v0ZM53.4,25.167A80.117,80.117,0,1,0,93.779,14.2,79.761,79.761,0,0,0,53.4,25.167Z" transform="translate(0.46 0.46)" fill="#fff" stroke="#818ea3" stroke-miterlimit="10" stroke-width="1"/>
				</g>
				<path d="M0,0" transform="translate(93.822 23.669) rotate(90)" fill="none" stroke="#1f43f6" stroke-linecap="round" stroke-width="3"/>
			</g>
		</g>
	</g>
</svg>