<svg xmlns="http://www.w3.org/2000/svg" xmlns:xlink="http://www.w3.org/1999/xlink" width="197" height="197" viewBox="0 0 197 197"><defs><filter id="gear-a" x="-14.769" y="-15.339" width="226.538" height="227.677" filterUnits="userSpaceOnUse"><feOffset input="SourceAlpha"/><feGaussianBlur stdDeviation="5" result="b"/><feFlood flood-color="#d5dce6" flood-opacity="0.702"/><feComposite operator="in" in2="b"/><feComposite in="SourceGraphic"/></filter><filter id="gear-c" x="18" y="18" width="161" height="161" filterUnits="userSpaceOnUse"><feOffset input="SourceAlpha"/><feGaussianBlur stdDeviation="5" result="d"/><feFlood flood-color="#d5dce6" flood-opacity="0.702"/><feComposite operator="in" in2="d"/><feComposite in="SourceGraphic"/></filter><filter id="gear-e" x="21.75" y="21.75" width="153.5" height="153.5" filterUnits="userSpaceOnUse"><feOffset input="SourceAlpha"/><feGaussianBlur stdDeviation="5" result="f"/><feFlood flood-color="#d5dce6" flood-opacity="0.702"/><feComposite operator="in" in2="f"/><feComposite in="SourceGraphic"/></filter><clipPath id="gear-h"><rect width="197" height="197"/></clipPath></defs><g id="gear-g" clip-path="url(#gear-h)"><g transform="translate(0.765 0.196)"><g transform="matrix(1, 0, 0, 1, -0.77, -0.2)" filter="url(#gear-a)"><path d="M253.431,526.137l0,0-2.912-4.458a30.929,30.929,0,0,0-14.375,4.233c-.286.163-.58.337-.88.516a83.794,83.794,0,0,0-9.417-9.815c.218-.32.428-.635.626-.939a30.923,30.923,0,0,0,5.045-14.111l-4.287-3.16,0,0-.1-.068-.1-.072,0,0-4.4-3.005a30.919,30.919,0,0,0-11.66,9.411c-.246.317-.5.66-.755,1.007a84.52,84.52,0,0,0-12.358-5.471c.092-.443.182-.88.26-1.294a30.929,30.929,0,0,0-.739-14.966l-5.169-1.28v0l-.119-.026-.118-.029v0l-5.212-1.094a30.928,30.928,0,0,0-7.172,13.158c-.111.411-.221.85-.332,1.294a84.562,84.562,0,0,0-12.948-.447c-.157-.925-.32-1.792-.49-2.593a30.925,30.925,0,0,0-6.411-13.545l-5.265.8v0l-.12.022-.12.018v0l-5.234.984a30.924,30.924,0,0,0-1.59,14.9c.1.75.218,1.552.359,2.4a83.769,83.769,0,0,0-13,4.8q-.463-.717-.9-1.362a30.93,30.93,0,0,0-11.106-10.06l-4.56,2.751,0,0-.1.067-.1.063,0,0-4.459,2.912a30.921,30.921,0,0,0,4.233,14.374c.222.39.463.8.714,1.21a84.069,84.069,0,0,0-9.963,9.123c-.337-.23-.669-.453-.988-.661a30.928,30.928,0,0,0-14.11-5.044l-3.161,4.286,0,0-.069.1-.072.1,0,0-3.005,4.4a30.925,30.925,0,0,0,9.412,11.66c.215.167.455.342.684.514a84.431,84.431,0,0,0-5.853,12.456c-.195-.039-.4-.083-.59-.118a30.914,30.914,0,0,0-14.967.739l-1.28,5.169h0l-.026.119-.029.118h0l-1.094,5.212a30.925,30.925,0,0,0,13.157,7.17l.205.052a84.619,84.619,0,0,0-.694,14.045,30.908,30.908,0,0,0-13.456,6.39l.8,5.265h0l.022.119.018.12h0l.984,5.234a30.9,30.9,0,0,0,14.415,1.64,83.919,83.919,0,0,0,4.879,13.508,30.84,30.84,0,0,0-9.7,10.85l2.75,4.56,0,0,.067.1.062.1h0l2.912,4.458a30.731,30.731,0,0,0,13.711-3.864,83.982,83.982,0,0,0,9.811,10.714,30.8,30.8,0,0,0-4.523,13.264l4.287,3.161,0,0,.1.069.1.072,0,0,4.4,3.005a30.628,30.628,0,0,0,10.891-8.457,84.274,84.274,0,0,0,13.4,6.139,30.581,30.581,0,0,0,.958,13.63l5.169,1.28v0l.118.026.119.029v0l5.212,1.094a30.545,30.545,0,0,0,6.755-11.754,84.6,84.6,0,0,0,14.842.469,30.521,30.521,0,0,0,6.063,12.072l5.265-.8v0l.119-.022.12-.018v-.005l5.235-.984a30.546,30.546,0,0,0,1.743-13.413,84.028,84.028,0,0,0,14.556-5.735,30.387,30.387,0,0,0,9.945,8.475l4.56-2.75,0,0,.1-.067.1-.063,0,0,4.459-2.912a30.48,30.48,0,0,0-3.456-12.934,83.842,83.842,0,0,0,10.584-10.416,30.654,30.654,0,0,0,12.987,4.35l3.161-4.285,0,0,.068-.1.072-.1,0,0,3.007-4.4a30.712,30.712,0,0,0-8.762-11.145,84.439,84.439,0,0,0,5.523-13.3,30.841,30.841,0,0,0,14.55-.811l1.28-5.169h0l.024-.118.029-.118h0l1.094-5.212a30.929,30.929,0,0,0-13.158-7.172l-.113-.029a84.416,84.416,0,0,0,.111-12.683c.03-.006.064-.012.095-.02a30.915,30.915,0,0,0,13.545-6.409l-.8-5.267h0l-.022-.12-.018-.12h0L265.9,556.9a30.925,30.925,0,0,0-14.9-1.59l-.332.045a83.94,83.94,0,0,0-5.1-12.894c.23-.153.455-.305.672-.453a30.925,30.925,0,0,0,10.06-11.106l-2.75-4.56,0,0-.067-.1ZM210.508,642.66a75.89,75.89,0,1,1,23.926-104.623A75.891,75.891,0,0,1,210.508,642.66Z" transform="translate(-71.49 -479.19)" fill="#fff" stroke="#818ea3" stroke-miterlimit="10" stroke-width="1"/></g></g><g transform="matrix(1, 0, 0, 1, 0, 0)" filter="url(#gear-c)"><circle cx="65.5" cy="65.5" r="65.5" transform="translate(33 33)" fill="#fff"/></g><g transform="matrix(1, 0, 0, 1, 0, 0)" filter="url(#gear-e)"><circle cx="61.5" cy="61.5" r="61.5" transform="translate(37 37)" fill="none" stroke="#818ea3" stroke-miterlimit="10" stroke-width="0.5"/></g></g></svg>