<svg width="151" height="151" viewBox="0 0 151 151" fill="none" xmlns="http://www.w3.org/2000/svg">
<rect width="151" height="151" rx="75.5" fill="#212121" fill-opacity="0.8"/>
<path fill-rule="evenodd" clip-rule="evenodd" d="M89 104L104 104V89H89V104ZM116 116V77L77 77V116L116 116Z" fill="#2E2E2E"/>
<path fill-rule="evenodd" clip-rule="evenodd" d="M89 104L104 104V89H89V104ZM116 116V77L77 77V116L116 116Z" fill="#23F7DD" fill-opacity="0.06"/>
<path fill-rule="evenodd" clip-rule="evenodd" d="M61 96.5C61 92.3579 57.6421 89 53.5 89C49.3579 89 46 92.3579 46 96.5C46 100.642 49.3579 104 53.5 104C57.6421 104 61 100.642 61 96.5ZM53.5 116C64.2696 116 73 107.27 73 96.5C73 85.7304 64.2696 77 53.5 77C42.7304 77 34 85.7305 34 96.5C34 107.27 42.7304 116 53.5 116Z" fill="#2E2E2E"/>
<path fill-rule="evenodd" clip-rule="evenodd" d="M61 96.5C61 92.3579 57.6421 89 53.5 89C49.3579 89 46 92.3579 46 96.5C46 100.642 49.3579 104 53.5 104C57.6421 104 61 100.642 61 96.5ZM53.5 116C64.2696 116 73 107.27 73 96.5C73 85.7304 64.2696 77 53.5 77C42.7304 77 34 85.7305 34 96.5C34 107.27 42.7304 116 53.5 116Z" fill="#23F7DD" fill-opacity="0.06"/>
<path fill-rule="evenodd" clip-rule="evenodd" d="M46 61H53.5C57.6421 61 61 57.6421 61 53.5C61 49.3579 57.6421 46 53.5 46H46V61ZM73 53.5C73 42.7304 64.2696 34 53.5 34L34 34L34 73H53.5C64.2696 73 73 64.2696 73 53.5Z" fill="#2E2E2E"/>
<path fill-rule="evenodd" clip-rule="evenodd" d="M46 61H53.5C57.6421 61 61 57.6421 61 53.5C61 49.3579 57.6421 46 53.5 46H46V61ZM73 53.5C73 42.7304 64.2696 34 53.5 34L34 34L34 73H53.5C64.2696 73 73 64.2696 73 53.5Z" fill="#23F7DD" fill-opacity="0.06"/>
<path fill-rule="evenodd" clip-rule="evenodd" d="M104 46L96.5 46C92.3579 46 89 49.3579 89 53.5C89 57.6421 92.3579 61 96.5 61C100.642 61 104 57.6421 104 53.5V46ZM96.5 73C107.27 73 116 64.2696 116 53.5V34L96.5 34C85.7304 34 77 42.7305 77 53.5C77 64.2696 85.7304 73 96.5 73Z" fill="#2E2E2E"/>
<path fill-rule="evenodd" clip-rule="evenodd" d="M104 46L96.5 46C92.3579 46 89 49.3579 89 53.5C89 57.6421 92.3579 61 96.5 61C100.642 61 104 57.6421 104 53.5V46ZM96.5 73C107.27 73 116 64.2696 116 53.5V34L96.5 34C85.7304 34 77 42.7305 77 53.5C77 64.2696 85.7304 73 96.5 73Z" fill="#23F7DD" fill-opacity="0.06"/>
</svg>
