<svg width="146" height="130" viewBox="0 0 146 130" fill="none" xmlns="http://www.w3.org/2000/svg">
<path d="M33.625 3.5625C35.0312 1.875 37 0.75 39.25 0.75H106.75C108.719 0.75 110.688 1.875 112.094 3.5625L143.594 46.3125C145.562 48.8438 145.281 52.5 143.031 55.0312L77.7812 127.031C76.6562 128.438 74.6875 129.281 73 129.281C71.0312 129.281 69.0625 128.438 67.9375 127.031L2.6875 55.0312C0.4375 52.5 0.15625 48.8438 2.125 46.3125L33.625 3.5625ZM44.5938 14.8125C43.4688 15.6562 43.4688 16.7812 44.0312 17.9062L60.0625 44.625L18.7188 48C17.5938 48.2812 16.75 49.125 16.75 50.25C16.75 51.6562 17.5938 52.5 18.7188 52.5L72.7188 57H73L127 52.5C128.125 52.5 128.969 51.6562 128.969 50.25C128.969 49.125 128.125 48.2812 127 48L85.6562 44.625L101.688 17.9062C102.531 16.7812 102.25 15.6562 101.125 14.8125C100.281 14.25 98.875 14.25 98.3125 15.0938L73 42.6562L47.4062 15.0938C46.8438 14.25 45.4375 14.25 44.5938 14.8125Z" fill="#FDE047"/>
</svg>
